<svg width="238" height="185" viewBox="0 0 238 185" fill="none" xmlns="http://www.w3.org/2000/svg">
<path d="M19.4883 33.6836H43.2539L36.1953 40.3867V71.0586L38.9883 67.8594V40.793L44.6758 35.2578L45.4375 36.375L40.207 41.4531V66.2852L55.9492 47.4961C58.2174 44.7878 59.3516 42.3503 59.3516 40.1836C59.3516 38.8971 58.7083 37.6784 57.4219 36.5273C56.1354 35.3424 54.5781 34.5638 52.75 34.1914V33.6836H79.5117V34.1914C73.6549 35.6133 67.3411 40.3867 60.5703 48.5117L53.5117 56.8906L72.25 93.3008L80.7812 98.8359H54.4258L61.0781 93.8594L48.4844 68.6719L40.207 78.7773V93.3008L48.4844 103H22.4336L21.0625 101.629H45.4375L38.9883 93.8594V78.1172L47.8242 67.25L46.707 65.0156L36.1953 77.5078V93.3008L42.3398 98.8359H19.082L26.0391 92.8945V39.7266L19.4883 33.6836ZM82.0508 38.3047C77.0404 38.6432 72.0469 41.5716 67.0703 47.0898L58.1836 56.9414L76.1094 93.3008L90.4805 103H58.1836L56.7617 101.629H86.1641L75.3477 94.2656L56.7617 56.9414L66.207 46.2773C71.1497 40.7591 76.2448 37.7461 81.4922 37.2383L82.0508 38.3047ZM146.898 35.4609L137.402 54.1484C136.793 48.8333 135.117 44.7708 132.375 41.9609C129.667 39.151 126.078 37.7461 121.609 37.7461C115.245 37.7461 110.285 40.2174 106.73 45.1602C103.21 50.1029 101.449 57.026 101.449 65.9297C101.449 85.5312 109.473 95.332 125.52 95.332H133.695V68.9766H120.898C118.122 68.9766 116.125 68.8242 114.906 68.5195C113.721 68.2148 112.57 67.5547 111.453 66.5391V65.2695C112.672 66.1836 113.891 66.793 115.109 67.0977C116.328 67.3685 118.309 67.5039 121.051 67.5039H133.695V64.7617H119.578H117.293C112.249 64.7617 109.727 62.9336 109.727 59.2773C109.727 57.8555 110.15 56.6367 110.996 55.6211C111.842 54.6055 112.858 54.0977 114.043 54.0977C114.923 54.0977 115.685 54.4193 116.328 55.0625C117.005 55.7057 117.344 56.4674 117.344 57.3477C117.344 58.8372 116.802 59.7005 115.719 59.9375L114.5 60.1914C114.094 60.293 113.891 60.4622 113.891 60.6992C113.891 61.1393 114.449 61.3594 115.566 61.3594H117.293H150.809L143.801 68.2148V93.25L150.301 98.8359H124.352H119.223C114.923 98.8359 111.368 98.3112 108.559 97.2617C105.749 96.2122 102.905 94.3503 100.027 91.6758C93.2227 85.4466 89.8203 77.1016 89.8203 66.6406C89.8203 55.8411 93.0365 47.4115 99.4688 41.3516C105.089 36.0365 111.758 33.3789 119.477 33.3789C122.93 33.3789 126.891 33.9883 131.359 35.207C135.93 36.4596 138.943 37.0859 140.398 37.0859C142.531 37.0859 144.698 36.5443 146.898 35.4609ZM149.945 38.6602L141.262 55.7227L140.043 55.1641L148.777 38.0508L149.945 38.6602ZM133.695 46.3789L132.781 45.7188C128.922 42.9766 125.401 41.6055 122.219 41.6055C118.359 41.6055 115.025 42.9766 112.215 45.7188C110.184 47.75 108.711 50.4076 107.797 53.6914C106.917 56.9753 106.477 61.3086 106.477 66.6914C106.477 73.5299 107.154 78.7604 108.508 82.3828C109.862 86.0052 112.35 89.2721 115.973 92.1836V92.7422C112.046 90.4062 109.219 87.1224 107.492 82.8906C105.766 78.625 104.902 72.8529 104.902 65.5742C104.902 57.5508 106.409 51.3216 109.422 46.8867C112.435 42.418 116.667 40.1836 122.117 40.1836C126.857 40.1836 130.716 42.1471 133.695 46.0742V46.3789ZM152.992 64.2539L147.762 69.4844V93.3008L156.191 103L136.031 102.848L117.75 103.051C116.599 103.051 115.719 103.017 115.109 102.949C112.977 102.712 110.827 101.781 108.66 100.156H109.727C112.029 101.172 115.177 101.68 119.172 101.68L121.711 101.629H153.348L146.34 93.8594V68.9766L152.18 63.0859L152.992 64.2539ZM161.676 40.5898C169.733 35.2747 178.772 32.6172 188.793 32.6172C196.072 32.6172 202.013 34.2591 206.617 37.543C211.221 40.793 213.523 45.0078 213.523 50.1875C213.523 57.0938 209.529 61.7148 201.539 64.0508V64.6094C202.352 64.8125 203.333 65.0833 204.484 65.4219C208.242 64.5417 211.188 62.7474 213.32 60.0391C215.487 57.3307 216.57 54.0638 216.57 50.2383C216.57 45.431 214.59 41.1654 210.629 37.4414V37.1367L211.188 37.5938C215.622 41.013 217.84 45.3971 217.84 50.7461C217.84 58.1263 214.014 63.2721 206.363 66.1836C209.681 67.707 212.254 69.8737 214.082 72.6836C215.944 75.4935 216.875 78.6589 216.875 82.1797C216.875 87.224 215.047 91.2695 211.391 94.3164C207.734 97.3294 202.859 98.8359 196.766 98.8359H160.406L167.414 92.8438V70.8555C165.417 70.8555 163.081 71.0586 160.406 71.4648L160 69.9922C163.013 69.6875 165.484 69.5352 167.414 69.5352V66.8438H166.145C164.249 66.8438 161.862 66.9792 158.984 67.25L161.219 62.375L162.031 62.4258C163.352 62.5273 164.35 62.5781 165.027 62.5781C166.043 62.5781 166.839 62.6289 167.414 62.7305V43.6367L161.676 40.5898ZM177.57 39.8281V62.7305C177.943 62.6966 178.197 62.6797 178.332 62.6797L179.246 62.7305C179.382 62.7305 179.669 62.7305 180.109 62.7305V41.9609C183.021 40.6068 185.865 39.9297 188.641 39.9297C191.823 39.9297 194.328 40.5052 196.156 41.6562C198.018 42.8073 199.592 44.7708 200.879 47.5469L199.457 46.7344C196.918 42.9089 193.296 40.9961 188.59 40.9961C185.949 40.9961 183.579 41.7409 181.48 43.2305V62.7305H183.613C190.079 62.7305 194.887 61.6641 198.035 59.5312C201.217 57.3646 202.809 54.0638 202.809 49.6289C202.809 45.7357 201.488 42.6042 198.848 40.2344C196.241 37.8307 192.805 36.6289 188.539 36.6289C184.781 36.6289 181.125 37.6953 177.57 39.8281ZM177.57 66.8945V94.875H180.109V69.9414C182.513 69.7721 184.24 69.6875 185.289 69.6875C190.909 69.6875 194.971 70.2122 197.477 71.2617C200.016 72.3112 202.03 74.3086 203.52 77.2539H202.91C201.251 74.918 199.169 73.3099 196.664 72.4297C194.159 71.5156 190.486 71.0586 185.645 71.0586L181.48 71.1602V94.875H183.105L190.469 94.6211C200.016 93.944 204.789 89.306 204.789 80.707C204.789 75.3242 203.215 71.651 200.066 69.6875C196.918 67.6901 191.027 66.6914 182.395 66.6914C181.548 66.6914 179.94 66.7591 177.57 66.8945ZM215.605 70.4492C219.228 73.2591 221.039 77.5247 221.039 83.2461C221.039 89.0013 219.025 93.7578 214.996 97.5156C211.069 101.172 205.297 103 197.68 103H163.148L162.285 101.629H194.328C201.302 101.629 206.329 100.918 209.41 99.4961C216.249 96.3138 219.668 90.7786 219.668 82.8906C219.668 78.4896 218.111 74.4948 214.996 70.9062L215.605 70.4492Z" fill="black"/>
<path d="M56.0625 106.625C53.1667 109.812 50.9792 112.99 49.5 116.156C48.0417 119.323 46.3125 124.562 44.3125 131.875L38.9062 151.562L39.5312 154L43.375 157.438H29.125L33.2188 154L27.6875 133.969L22.3125 153.562L27.6875 160H11.7188L11.0938 159.156H25.9688L21.2812 153.75L27.1875 132.375L26.1562 128.656L19.75 152.062L20.25 154L23.9062 157.438H9.625L13.875 154L4.78125 121.281L0.09375 117.344H15.375L11.0938 121.281L18.25 147.031L19.3438 143.25L13.3125 121.75L16.1562 119.219L16.875 119.719L14.2812 122.031L19.75 141.688L26.4375 117.344H29.375L37.5 146.781L38.5 143.25L31.3125 117.344H32.1875L38.9062 141.688L41.8438 131.125C43.6771 124.5 44.5938 120.188 44.5938 118.188C44.5938 115.958 43.5521 114.208 41.4688 112.938C43.9062 112.167 46.5208 111.115 49.3125 109.781C52.1042 108.448 54.1875 107.25 55.5625 106.188L56.0625 106.625ZM57.9375 109C55.4375 111.75 53.375 114.854 51.75 118.312C50.1458 121.771 48.5 126.604 46.8125 132.812L41.2812 153L47.2812 160H31.25L30.5312 159.156H45.375L40.3125 153.312L46.0625 132.375C47.7708 126.167 49.4062 121.396 50.9688 118.062C52.5312 114.708 54.6146 111.51 57.2188 108.469L57.9375 109ZM54.5938 117.344H69.2812L65.0312 121.5V135C65.5104 135.083 66.0729 135.146 66.7188 135.188V121.812L70.125 118.438L70.75 119L67.5312 122.188V135.219L68.5625 135.312C70.1667 135.458 71.7188 135.531 73.2188 135.531C75.3854 135.531 77.25 135.427 78.8125 135.219V120.844L75 117.344H89.4375L85.125 121.5V154.062L88.9062 157.438H74.5312L78.8125 153.781V140.531C77.0625 140.948 75.2604 141.156 73.4062 141.156C71.6562 141.156 69.8438 141.062 67.9688 140.875L67.5312 140.844V154.062L72.6875 160H56.5312L55.7188 159.156H70.9688L66.7188 154.5V140.125L67.625 140.188C70.375 140.396 72.3646 140.5 73.5938 140.5C75.5938 140.5 77.3333 140.229 78.8125 139.688V138.562C76.8542 138.854 74.5729 139 71.9688 139C70.5729 139 69.5521 138.969 68.9062 138.906L65.75 138.625C65.625 138.604 65.3854 138.583 65.0312 138.562V154.062L69.0312 157.438H54.5938L58.7812 153.781V140.125C57.0312 140.125 55.6354 140.812 54.5938 142.188L53.9375 141.875C55.1458 140.354 56.7604 139.51 58.7812 139.344V138.188C56.4479 138.188 54.6042 139.073 53.25 140.844L52.7812 140.531C54.0104 137.531 56.0104 135.76 58.7812 135.219V121.156L54.5938 117.344ZM90.75 119.094L87.5625 122.188V154.062L92.75 160H76.5312L75.75 159.156H90.9688L86.7812 154.438V121.875L90.25 118.438L90.75 119.094ZM94.0312 117.344H108.844L104.656 121.594V154.125L108.594 157.438H94.0312L98.375 153.844V121.25L94.0312 117.344ZM110.25 119.125L107.062 122.281V154.125L112.312 160H96.0625L95.2812 159.156H110.469L106.188 154.438V122L109.719 118.5L110.25 119.125ZM142.938 117.688C141.854 119.146 140.99 120.667 140.344 122.25C139.073 125.375 138.229 127.292 137.812 128L137.656 128.188C137.573 127.958 137.51 127.781 137.469 127.656C136.885 125.781 136.406 124.479 136.031 123.75C135.656 123.021 135.094 122.323 134.344 121.656C132.448 119.969 130.292 119.125 127.875 119.125C125.646 119.125 123.792 119.75 122.312 121C120.833 122.229 120.094 123.781 120.094 125.656C120.094 129.156 122.729 131.542 128 132.812L133.281 134.094C140.802 135.906 144.562 139.875 144.562 146C144.562 149.417 143.271 152.292 140.688 154.625C138.125 156.938 134.948 158.094 131.156 158.094C128.781 158.094 126.125 157.729 123.188 157L119.531 156.094C118.052 155.74 116.833 155.562 115.875 155.562C114.604 155.562 113.292 155.969 111.938 156.781L111.688 156.344C114.271 152.448 116.083 148.74 117.125 145.219L117.688 145.375C118.125 148.646 119.438 151.188 121.625 153C123.812 154.812 126.677 155.719 130.219 155.719C133.01 155.719 135.229 155.073 136.875 153.781C138.521 152.49 139.344 150.75 139.344 148.562C139.344 146.042 138.198 143.958 135.906 142.312C134.26 141.146 130.885 140.062 125.781 139.062C121.844 138.292 118.99 137.01 117.219 135.219C115.448 133.427 114.562 130.938 114.562 127.75C114.562 124.458 115.74 121.792 118.094 119.75C120.469 117.688 123.552 116.656 127.344 116.656C129.781 116.656 132.625 117.094 135.875 117.969C137.396 118.385 138.521 118.594 139.25 118.594C140.271 118.594 141.385 118.24 142.594 117.531L142.938 117.688ZM144.875 119L144.594 119.469C143.74 120.906 143.01 122.281 142.406 123.594C140.948 126.656 140.125 128.365 139.938 128.719L139.781 128.938L139.031 128.625L139.156 128.344C139.76 126.969 140.635 125.177 141.781 122.969L143.906 118.844L144.062 118.594L144.875 119ZM135.75 125.219C133.458 122.781 131 121.562 128.375 121.562C126.792 121.562 125.479 122.021 124.438 122.938C123.396 123.854 122.875 125.021 122.875 126.438C122.875 127.979 123.927 129.562 126.031 131.188L126.281 131.344L126.125 131.594C123.375 130.365 122 128.583 122 126.25C122 124.625 122.583 123.302 123.75 122.281C124.917 121.26 126.438 120.75 128.312 120.75C130.104 120.75 131.667 121.135 133 121.906C134.354 122.656 135.344 123.719 135.969 125.094L135.75 125.219ZM142.938 137.625C145.771 139.771 147.188 142.708 147.188 146.438C147.188 150.417 145.646 153.792 142.562 156.562C139.479 159.312 135.729 160.688 131.312 160.688C129.062 160.688 127.031 160.458 125.219 160L120.219 158.781C119.052 158.49 117.802 158.344 116.469 158.344C115.281 158.344 114.188 158.583 113.188 159.062L112.812 158.156C113.896 157.656 115 157.406 116.125 157.406C117.375 157.406 118.802 157.594 120.406 157.969L125.219 159.125C127.135 159.583 129.156 159.812 131.281 159.812C135.448 159.812 138.99 158.49 141.906 155.844C144.844 153.177 146.312 149.958 146.312 146.188C146.312 143 145.188 140.208 142.938 137.812V137.625ZM120.688 146.625C121.458 150.375 123.521 153.031 126.875 154.594V154.844C123 153.719 120.656 151.031 119.844 146.781L120.688 146.625ZM116.781 136.5L117.844 137.094C118.531 138.323 120.542 139.344 123.875 140.156L128.906 141.406C132.323 142.26 134.594 143 135.719 143.625C136.865 144.229 137.677 145.156 138.156 146.406L137.938 146.531C137 145.448 135.979 144.656 134.875 144.156C133.792 143.656 131.698 143.042 128.594 142.312C124.094 141.271 121.073 140.375 119.531 139.625C117.99 138.854 117.073 137.812 116.781 136.5ZM149.344 117.344H163.969L159.625 121.469V140.344L161.344 138.375V121.719L164.844 118.312L165.312 119L162.094 122.125V137.406L171.781 125.844C173.177 124.177 173.875 122.677 173.875 121.344C173.875 120.552 173.479 119.802 172.688 119.094C171.896 118.365 170.938 117.885 169.812 117.656V117.344H186.281V117.656C182.677 118.531 178.792 121.469 174.625 126.469L170.281 131.625L181.812 154.031L187.062 157.438H170.844L174.938 154.375L167.188 138.875L162.094 145.094V154.031L167.188 160H151.156L150.312 159.156H165.312L161.344 154.375V144.688L166.781 138L166.094 136.625L159.625 144.312V154.031L163.406 157.438H149.094L153.375 153.781V121.062L149.344 117.344ZM187.844 120.188C184.76 120.396 181.688 122.198 178.625 125.594L173.156 131.656L184.188 154.031L193.031 160H173.156L172.281 159.156H190.375L183.719 154.625L172.281 131.656L178.094 125.094C181.135 121.698 184.271 119.844 187.5 119.531L187.844 120.188ZM236.094 106.344L236.281 106.594L235.969 106.938C232.24 110.812 229.167 114.75 226.75 118.75C225.812 120.271 225.146 121.354 224.75 122L213.125 140.594V153.281L217.656 157.438H202.438L206.938 153.281V140.594L199.438 129.062L197.812 126.469C196.333 124.156 195.115 122.469 194.156 121.406C193.219 120.344 191.823 119.083 189.969 117.625L189.625 117.344H205.406L201.531 121.375L211.938 137.062L212.938 135.469L203.656 121.375L206.938 118.25L207.594 118.75L204.75 121.375L213.406 134.719L220.406 123.688C222.427 120.479 223.438 118.083 223.438 116.5C223.438 115.167 222.552 113.646 220.781 111.938C226.844 110.479 231.823 108.677 235.719 106.531L236.094 106.344ZM237.5 108.219V109.5L237.188 109.812C235.438 111.479 233.927 113.146 232.656 114.812C231.406 116.479 229.542 119.281 227.062 123.219L215.75 141.031V153.281L221.312 160H201.75L201.375 159.156H219.656L214.906 153.281V140.812L226.438 122.625L228.25 119.75C231.479 114.604 234.562 110.76 237.5 108.219Z" fill="black"/>
<line x1="10" y1="166.5" x2="103" y2="166.5" stroke="black"/>
<line x1="129" y1="184.5" x2="222" y2="184.5" stroke="black"/>
<line x1="10" y1="184.5" x2="103" y2="184.5" stroke="black"/>
<line x1="129" y1="166.5" x2="222" y2="166.5" stroke="black"/>
<path d="M21.1465 171.646C20.7129 171.814 20.3477 171.898 20.0508 171.898C19.8398 171.898 19.5703 171.838 19.2422 171.717C18.918 171.596 18.6836 171.535 18.5391 171.535C18.2812 171.535 18.0605 171.637 17.877 171.84C17.6934 172.039 17.6016 172.281 17.6016 172.566C17.6016 172.895 17.75 173.184 18.0469 173.434C18.1445 173.516 18.1934 173.578 18.1934 173.621C18.1934 173.688 18.1035 173.811 17.9238 173.99C17.748 174.17 17.5977 174.26 17.4727 174.26C17.3359 174.26 17.1992 174.145 17.0625 173.914C16.9258 173.684 16.8574 173.447 16.8574 173.205C16.8574 172.572 17.1152 171.986 17.6309 171.447C18.1465 170.908 18.7051 170.639 19.3066 170.639C19.5371 170.639 19.8223 170.705 20.1621 170.838C20.5059 170.967 20.7539 171.031 20.9062 171.031C21.1406 171.031 21.3477 170.936 21.5273 170.744C21.5898 170.682 21.6465 170.65 21.6973 170.65C21.748 170.65 21.832 170.67 21.9492 170.709C22.0703 170.748 22.1309 170.791 22.1309 170.838C22.1309 170.873 22.0215 171.031 21.8027 171.312C21.584 171.59 21.4141 171.891 21.293 172.215C21.1719 172.539 21.0586 173.021 20.9531 173.662L20.8301 174.383C20.5957 175.812 20.3184 176.818 19.998 177.4C19.6816 177.979 19.2832 178.412 18.8027 178.701C18.3262 178.99 17.8105 179.135 17.2559 179.135C16.7285 179.135 16.2617 179.01 15.8555 178.76C15.4531 178.51 15.252 178.23 15.252 177.922C15.252 177.77 15.3848 177.578 15.6504 177.348C15.916 177.113 16.1074 176.996 16.2246 176.996C16.4082 176.996 16.5 177.145 16.5 177.441C16.5117 178.273 16.7754 178.689 17.291 178.689C18.0918 178.689 18.6211 177.771 18.8789 175.936C18.9922 175.15 19.1582 174.467 19.377 173.885C19.5996 173.299 20.1895 172.553 21.1465 171.646ZM25.2598 177.705C24.791 178.201 24.3789 178.564 24.0234 178.795C23.668 179.021 23.293 179.135 22.8984 179.135C22.4961 179.135 22.1621 178.986 21.8965 178.689C21.6348 178.393 21.5039 178.016 21.5039 177.559C21.5039 177.492 21.5293 177.236 21.5801 176.791C21.6348 176.342 21.6621 176.074 21.6621 175.988C21.6621 175.617 21.5859 175.354 21.4336 175.197C21.3867 175.205 21.3145 175.209 21.2168 175.209C21.0332 175.209 20.9414 175.129 20.9414 174.969C20.9414 174.734 21.0625 174.617 21.3047 174.617L21.5625 174.635C21.8086 174.635 22.0176 174.52 22.1895 174.289C22.3613 174.059 22.5254 173.625 22.6816 172.988C23.0645 171.43 23.6406 170.65 24.4102 170.65C24.5898 170.65 24.7598 170.719 24.9199 170.855C25.084 170.992 25.166 171.135 25.166 171.283C25.166 171.373 25.0938 171.561 24.9492 171.846C24.8047 172.127 24.6914 172.268 24.6094 172.268C24.5664 172.268 24.502 172.195 24.416 172.051C24.3301 171.906 24.2031 171.834 24.0352 171.834C23.707 171.834 23.4512 172.191 23.2676 172.906C23.084 173.621 22.8984 174.107 22.7109 174.365C22.5234 174.623 22.3203 174.791 22.1016 174.869C22.4922 175.072 22.7754 175.309 22.9512 175.578C23.1309 175.848 23.2207 176.205 23.2207 176.65C23.2207 176.736 23.2109 176.877 23.1914 177.072C23.1758 177.268 23.168 177.412 23.168 177.506C23.168 177.943 23.3457 178.162 23.7012 178.162C24.1113 178.162 24.6309 177.785 25.2598 177.031V177.705ZM30.5273 177.705C30.3477 177.861 30.166 177.973 29.9824 178.039C29.7988 178.105 29.6562 178.139 29.5547 178.139C29.2695 178.139 28.9883 178.029 28.7109 177.811C28.0156 178.693 27.2793 179.135 26.502 179.135C26.0957 179.135 25.7773 178.996 25.5469 178.719C25.3203 178.438 25.207 178.047 25.207 177.547C25.207 176.996 25.3438 176.32 25.6172 175.52L26.0273 174.318L27.6211 174.02L26.9121 176.135C26.8379 176.365 26.7676 176.639 26.7012 176.955C26.6348 177.271 26.6016 177.498 26.6016 177.635C26.6016 177.846 26.6562 178.023 26.7656 178.168C26.8789 178.309 27.0156 178.379 27.1758 178.379C27.5508 178.379 27.9551 178.059 28.3887 177.418C28.1895 177.02 28.0898 176.619 28.0898 176.217C28.0898 175.658 28.2363 175.154 28.5293 174.705C28.8262 174.256 29.1504 174.031 29.502 174.031C29.7676 174.031 29.9004 174.236 29.9004 174.646C29.9004 175.439 29.5801 176.355 28.9395 177.395C29.1387 177.578 29.3477 177.67 29.5664 177.67C29.832 177.67 30.1523 177.457 30.5273 177.031V177.705ZM33.293 171.74C33.293 172.678 32.9473 173.146 32.2559 173.146C31.9199 173.146 31.6328 173.045 31.3945 172.842C31.6211 172.498 31.7969 172.111 31.9219 171.682C32.2305 171.873 32.4785 171.969 32.666 171.969C32.877 171.969 33.0859 171.893 33.293 171.74ZM33.4102 177.705C32.4961 178.666 31.8125 179.146 31.3594 179.146C31.1094 179.146 30.8984 179.02 30.7266 178.766C30.5547 178.508 30.4688 178.186 30.4688 177.799C30.4688 176.967 30.75 175.814 31.3125 174.342L32.8008 174.031H32.8711L32.2852 175.865C32.043 176.623 31.9219 177.164 31.9219 177.488C31.9219 177.617 31.9492 177.723 32.0039 177.805C32.0625 177.883 32.1348 177.922 32.2207 177.922C32.373 177.922 32.5254 177.867 32.6777 177.758C32.834 177.645 33.0781 177.402 33.4102 177.031V177.705ZM35.2148 174.271C35.4844 174.201 35.7559 174.145 36.0293 174.102C36.3027 174.055 36.4668 174.031 36.5215 174.031C36.5605 174.031 36.5801 174.047 36.5801 174.078C36.5801 174.137 36.5645 174.197 36.5332 174.26C36.4707 174.439 36.4395 174.611 36.4395 174.775C36.4395 174.979 36.5566 175.256 36.791 175.607C37.0254 175.959 37.1426 176.285 37.1426 176.586C37.1426 177.184 36.8555 177.76 36.2812 178.314C35.7109 178.869 35.1191 179.146 34.5059 179.146C34.2402 179.146 33.998 179.076 33.7793 178.936C33.5605 178.795 33.4512 178.645 33.4512 178.484C33.4512 178.391 33.5586 178.213 33.7734 177.951C33.9922 177.689 34.1484 177.559 34.2422 177.559C34.3672 177.559 34.4785 177.719 34.5762 178.039C34.6738 178.359 34.8418 178.52 35.0801 178.52C35.3184 178.52 35.541 178.41 35.748 178.191C35.959 177.969 36.0645 177.73 36.0645 177.477C36.0645 177.23 35.9316 176.902 35.666 176.492C35.4004 176.082 35.2246 175.738 35.1387 175.461C34.6855 176.191 34.1113 176.939 33.416 177.705H33.2812V177.178C34.2383 176.158 34.8828 175.189 35.2148 174.271ZM41.6602 177.705C41.168 178.193 40.7422 178.555 40.3828 178.789C40.0234 179.02 39.6816 179.135 39.3574 179.135C39.0215 179.135 38.748 178.994 38.5371 178.713C38.3301 178.428 38.2266 178.055 38.2266 177.594C38.2266 177.188 38.3242 176.65 38.5195 175.982L38.7773 175.098L38.3262 175.121L38.5137 174.201L39.0703 174.178L39.6211 172.35L41.1914 172.027L40.5938 174.066L41.4082 174.02L41.2148 174.922L40.3066 174.992L39.9141 176.305C39.7812 176.762 39.7148 177.125 39.7148 177.395C39.7148 177.578 39.7598 177.729 39.8496 177.846C39.9434 177.959 40.0625 178.016 40.207 178.016C40.4062 178.016 40.6035 177.953 40.7988 177.828C40.9941 177.699 41.2812 177.434 41.6602 177.031V177.705ZM53.6777 171.646C53.2441 171.814 52.8789 171.898 52.582 171.898C52.3711 171.898 52.1016 171.838 51.7734 171.717C51.4492 171.596 51.2148 171.535 51.0703 171.535C50.8125 171.535 50.5918 171.637 50.4082 171.84C50.2246 172.039 50.1328 172.281 50.1328 172.566C50.1328 172.895 50.2812 173.184 50.5781 173.434C50.6758 173.516 50.7246 173.578 50.7246 173.621C50.7246 173.688 50.6348 173.811 50.4551 173.99C50.2793 174.17 50.1289 174.26 50.0039 174.26C49.8672 174.26 49.7305 174.145 49.5938 173.914C49.457 173.684 49.3887 173.447 49.3887 173.205C49.3887 172.572 49.6465 171.986 50.1621 171.447C50.6777 170.908 51.2363 170.639 51.8379 170.639C52.0684 170.639 52.3535 170.705 52.6934 170.838C53.0371 170.967 53.2852 171.031 53.4375 171.031C53.6719 171.031 53.8789 170.936 54.0586 170.744C54.1211 170.682 54.1777 170.65 54.2285 170.65C54.2793 170.65 54.3633 170.67 54.4805 170.709C54.6016 170.748 54.6621 170.791 54.6621 170.838C54.6621 170.873 54.5527 171.031 54.334 171.312C54.1152 171.59 53.9453 171.891 53.8242 172.215C53.7031 172.539 53.5898 173.021 53.4844 173.662L53.3613 174.383C53.127 175.812 52.8496 176.818 52.5293 177.4C52.2129 177.979 51.8145 178.412 51.334 178.701C50.8574 178.99 50.3418 179.135 49.7871 179.135C49.2598 179.135 48.793 179.01 48.3867 178.76C47.9844 178.51 47.7832 178.23 47.7832 177.922C47.7832 177.77 47.916 177.578 48.1816 177.348C48.4473 177.113 48.6387 176.996 48.7559 176.996C48.9395 176.996 49.0312 177.145 49.0312 177.441C49.043 178.273 49.3066 178.689 49.8223 178.689C50.623 178.689 51.1523 177.771 51.4102 175.936C51.5234 175.15 51.6895 174.467 51.9082 173.885C52.1309 173.299 52.7207 172.553 53.6777 171.646ZM57.791 177.705C57.3223 178.201 56.9102 178.564 56.5547 178.795C56.1992 179.021 55.8242 179.135 55.4297 179.135C55.0273 179.135 54.6934 178.986 54.4277 178.689C54.166 178.393 54.0352 178.016 54.0352 177.559C54.0352 177.492 54.0605 177.236 54.1113 176.791C54.166 176.342 54.1934 176.074 54.1934 175.988C54.1934 175.617 54.1172 175.354 53.9648 175.197C53.918 175.205 53.8457 175.209 53.748 175.209C53.5645 175.209 53.4727 175.129 53.4727 174.969C53.4727 174.734 53.5938 174.617 53.8359 174.617L54.0938 174.635C54.3398 174.635 54.5488 174.52 54.7207 174.289C54.8926 174.059 55.0566 173.625 55.2129 172.988C55.5957 171.43 56.1719 170.65 56.9414 170.65C57.1211 170.65 57.291 170.719 57.4512 170.855C57.6152 170.992 57.6973 171.135 57.6973 171.283C57.6973 171.373 57.625 171.561 57.4805 171.846C57.3359 172.127 57.2227 172.268 57.1406 172.268C57.0977 172.268 57.0332 172.195 56.9473 172.051C56.8613 171.906 56.7344 171.834 56.5664 171.834C56.2383 171.834 55.9824 172.191 55.7988 172.906C55.6152 173.621 55.4297 174.107 55.2422 174.365C55.0547 174.623 54.8516 174.791 54.6328 174.869C55.0234 175.072 55.3066 175.309 55.4824 175.578C55.6621 175.848 55.752 176.205 55.752 176.65C55.752 176.736 55.7422 176.877 55.7227 177.072C55.707 177.268 55.6992 177.412 55.6992 177.506C55.6992 177.943 55.877 178.162 56.2324 178.162C56.6426 178.162 57.1621 177.785 57.791 177.031V177.705ZM62.0508 171.729C61.9766 172.682 61.5801 173.158 60.8613 173.158C60.5254 173.158 60.2285 173.045 59.9707 172.818C60.3105 172.385 60.5117 172.01 60.5742 171.693C60.8867 171.885 61.1465 171.98 61.3535 171.98C61.5879 171.98 61.8203 171.896 62.0508 171.729ZM62.1797 177.705C61.8125 178.076 61.3574 178.408 60.8145 178.701C60.6699 179.768 60.3965 180.586 59.9941 181.156C59.5957 181.727 59.1875 182.012 58.7695 182.012C58.5078 182.012 58.2852 181.902 58.1016 181.684C57.918 181.469 57.8262 181.203 57.8262 180.887C57.8262 180.121 58.3418 179.477 59.373 178.953L59.8066 175.426C58.9941 176.441 58.3262 177.201 57.8027 177.705H57.668V177.178C58.1875 176.682 58.8867 175.861 59.7656 174.717L60.1289 174.248C60.5391 174.201 60.998 174.125 61.5059 174.02C61.334 174.949 61.1309 176.322 60.8965 178.139C61.2559 177.959 61.6797 177.594 62.168 177.043L62.1797 177.705ZM59.3379 179.492C59.0098 179.645 58.75 179.85 58.5586 180.107C58.3711 180.369 58.2773 180.637 58.2773 180.91C58.2773 181.086 58.3184 181.234 58.4004 181.355C58.4824 181.48 58.5781 181.543 58.6875 181.543C58.957 181.543 59.1328 181.199 59.2148 180.512L59.3379 179.492ZM66.5625 177.705C66.0664 178.193 65.6211 178.555 65.2266 178.789C64.832 179.02 64.3965 179.135 63.9199 179.135C63.3887 179.135 62.959 178.965 62.6309 178.625C62.3066 178.285 62.1445 177.838 62.1445 177.283C62.1445 176.455 62.4316 175.707 63.0059 175.039C63.5801 174.367 64.2168 174.031 64.916 174.031C65.2793 174.031 65.5703 174.125 65.7891 174.312C66.0078 174.5 66.1172 174.746 66.1172 175.051C66.1172 175.859 65.2578 176.516 63.5391 177.02C63.6953 177.781 64.1035 178.162 64.7637 178.162C65.0215 178.162 65.2676 178.094 65.502 177.957C65.7363 177.816 66.0898 177.508 66.5625 177.031V177.705ZM63.4922 176.621C64.4922 176.34 64.9922 175.82 64.9922 175.062C64.9922 174.688 64.8555 174.5 64.582 174.5C64.3242 174.5 64.0781 174.697 63.8438 175.092C63.6094 175.482 63.4922 175.992 63.4922 176.621ZM70.4414 177.705C69.9102 178.193 69.4434 178.555 69.041 178.789C68.6426 179.02 68.2617 179.135 67.8984 179.135C67.4805 179.135 67.1426 178.973 66.8848 178.648C66.6309 178.324 66.5039 177.889 66.5039 177.342C66.5039 176.521 66.6816 175.537 67.0371 174.389C67.3926 173.24 67.8242 172.182 68.332 171.213L69.8203 170.662C69.8672 170.646 69.9023 170.639 69.9258 170.639C70.0391 170.639 70.1309 170.723 70.2012 170.891C70.2754 171.055 70.3125 171.277 70.3125 171.559C70.3125 172.355 70.1289 173.127 69.7617 173.873C69.3945 174.619 68.8203 175.416 68.0391 176.264C68.0078 176.67 67.9922 176.949 67.9922 177.102C67.9922 177.441 68.0547 177.711 68.1797 177.91C68.3047 178.109 68.4707 178.209 68.6777 178.209C68.8887 178.209 69.1133 178.133 69.3516 177.98C69.5898 177.828 69.9531 177.512 70.4414 177.031V177.705ZM68.1973 175.414C68.6934 174.863 69.0957 174.246 69.4043 173.562C69.7129 172.879 69.8672 172.291 69.8672 171.799C69.8672 171.654 69.8457 171.539 69.8027 171.453C69.7598 171.363 69.7051 171.318 69.6387 171.318C69.4941 171.318 69.2832 171.678 69.0059 172.396C68.7324 173.115 68.4629 174.121 68.1973 175.414ZM74.3203 177.705C73.7891 178.193 73.3223 178.555 72.9199 178.789C72.5215 179.02 72.1406 179.135 71.7773 179.135C71.3594 179.135 71.0215 178.973 70.7637 178.648C70.5098 178.324 70.3828 177.889 70.3828 177.342C70.3828 176.521 70.5605 175.537 70.916 174.389C71.2715 173.24 71.7031 172.182 72.2109 171.213L73.6992 170.662C73.7461 170.646 73.7812 170.639 73.8047 170.639C73.918 170.639 74.0098 170.723 74.0801 170.891C74.1543 171.055 74.1914 171.277 74.1914 171.559C74.1914 172.355 74.0078 173.127 73.6406 173.873C73.2734 174.619 72.6992 175.416 71.918 176.264C71.8867 176.67 71.8711 176.949 71.8711 177.102C71.8711 177.441 71.9336 177.711 72.0586 177.91C72.1836 178.109 72.3496 178.209 72.5566 178.209C72.7676 178.209 72.9922 178.133 73.2305 177.98C73.4688 177.828 73.832 177.512 74.3203 177.031V177.705ZM72.0762 175.414C72.5723 174.863 72.9746 174.246 73.2832 173.562C73.5918 172.879 73.7461 172.291 73.7461 171.799C73.7461 171.654 73.7246 171.539 73.6816 171.453C73.6387 171.363 73.584 171.318 73.5176 171.318C73.373 171.318 73.1621 171.678 72.8848 172.396C72.6113 173.115 72.3418 174.121 72.0762 175.414ZM80.0742 177.705C79.1719 178.658 78.3984 179.135 77.7539 179.135C77.4922 179.135 77.2812 179.043 77.1211 178.859C76.9609 178.676 76.8809 178.43 76.8809 178.121C76.8809 177.703 77.0527 177.064 77.3965 176.205C77.5801 175.744 77.6719 175.451 77.6719 175.326C77.6719 175.201 77.623 175.139 77.5254 175.139C77.4707 175.139 77.3984 175.166 77.3086 175.221C77.2266 175.275 77.1309 175.352 77.0215 175.449C76.9238 175.539 76.8145 175.648 76.6934 175.777C76.5879 175.887 76.4746 176.012 76.3535 176.152L76.0254 176.533C75.8809 176.709 75.791 176.895 75.7559 177.09C75.6973 177.422 75.6582 177.727 75.6387 178.004C75.627 178.211 75.6211 178.49 75.6211 178.842L74.3262 179.146C74.2832 178.619 74.2617 178.227 74.2617 177.969C74.2617 177.34 74.334 176.744 74.4785 176.182C74.627 175.619 74.8633 174.986 75.1875 174.283L76.6172 174.008C76.3164 174.816 76.1191 175.453 76.0254 175.918C76.666 175.203 77.1738 174.709 77.5488 174.436C77.9277 174.158 78.2637 174.02 78.5566 174.02C78.7559 174.02 78.9219 174.096 79.0547 174.248C79.1875 174.396 79.2539 174.584 79.2539 174.811C79.2539 175.186 79.0859 175.803 78.75 176.662C78.5195 177.252 78.4043 177.635 78.4043 177.811C78.4043 178.045 78.5 178.162 78.6914 178.162C78.9766 178.162 79.4375 177.785 80.0742 177.031V177.705ZM84.457 177.705C83.9609 178.193 83.5156 178.555 83.1211 178.789C82.7266 179.02 82.291 179.135 81.8145 179.135C81.2832 179.135 80.8535 178.965 80.5254 178.625C80.2012 178.285 80.0391 177.838 80.0391 177.283C80.0391 176.455 80.3262 175.707 80.9004 175.039C81.4746 174.367 82.1113 174.031 82.8105 174.031C83.1738 174.031 83.4648 174.125 83.6836 174.312C83.9023 174.5 84.0117 174.746 84.0117 175.051C84.0117 175.859 83.1523 176.516 81.4336 177.02C81.5898 177.781 81.998 178.162 82.6582 178.162C82.916 178.162 83.1621 178.094 83.3965 177.957C83.6309 177.816 83.9844 177.508 84.457 177.031V177.705ZM81.3867 176.621C82.3867 176.34 82.8867 175.82 82.8867 175.062C82.8867 174.688 82.75 174.5 82.4766 174.5C82.2188 174.5 81.9727 174.697 81.7383 175.092C81.5039 175.482 81.3867 175.992 81.3867 176.621ZM88.8398 177.705C87.8594 178.666 87.1035 179.146 86.5723 179.146C86.334 179.146 86.1328 179.047 85.9688 178.848C85.8047 178.645 85.7227 178.395 85.7227 178.098C85.7227 177.547 86.0176 176.809 86.6074 175.883C86.3184 176.031 86.002 176.135 85.6582 176.193C85.4043 176.662 85.0059 177.166 84.4629 177.705H84.3281V177.178C84.6328 176.861 84.9082 176.521 85.1543 176.158C84.8184 176.01 84.6504 175.789 84.6504 175.496C84.6504 175.195 84.752 174.875 84.9551 174.535C85.1621 174.191 85.4453 174.02 85.8047 174.02C86.1094 174.02 86.2617 174.176 86.2617 174.488C86.2617 174.734 86.1738 175.086 85.998 175.543C86.6465 175.473 87.2129 174.977 87.6973 174.055L88.2305 174.031L87.6855 175.531C87.459 176.164 87.3125 176.596 87.2461 176.826C87.1797 177.053 87.1465 177.254 87.1465 177.43C87.1465 177.594 87.1836 177.725 87.2578 177.822C87.3359 177.92 87.4395 177.969 87.5684 177.969C87.709 177.969 87.8438 177.922 87.9727 177.828C88.1016 177.73 88.3906 177.465 88.8398 177.031V177.705ZM102.463 177.705C102.197 178.014 101.689 178.361 100.939 178.748C100.783 179.787 100.438 180.59 99.9023 181.156C99.3672 181.727 98.7656 182.012 98.0977 182.012C97.7773 182.012 97.5254 181.938 97.3418 181.789C97.1621 181.641 97.0723 181.436 97.0723 181.174C97.0723 180.447 97.7773 179.742 99.1875 179.059C99.3359 178.531 99.4805 178.057 99.6211 177.635C99.375 177.99 99.0176 178.305 98.5488 178.578C98.0801 178.852 97.6445 178.988 97.2422 178.988C96.5859 178.988 96.0391 178.705 95.6016 178.139C95.168 177.568 94.9512 176.848 94.9512 175.977C94.9512 175.059 95.1973 174.189 95.6895 173.369C96.1816 172.545 96.8281 171.887 97.6289 171.395C98.4297 170.898 99.2051 170.65 99.9551 170.65C100.627 170.65 101.172 170.842 101.59 171.225C102.012 171.607 102.223 172.104 102.223 172.713C102.223 173.369 101.986 173.947 101.514 174.447C101.041 174.947 100.498 175.197 99.8848 175.197C99.5254 175.197 99.2266 175.109 98.9883 174.934C98.7539 174.758 98.6367 174.541 98.6367 174.283C98.6367 174.127 98.6816 173.988 98.7715 173.867C98.8652 173.746 98.9727 173.686 99.0938 173.686C99.2109 173.686 99.2695 173.754 99.2695 173.891C99.2695 174.012 99.3145 174.105 99.4043 174.172C99.4941 174.238 99.5977 174.271 99.7148 174.271C100.027 174.271 100.326 174.059 100.611 173.633C100.9 173.203 101.045 172.744 101.045 172.256C101.045 171.912 100.934 171.633 100.711 171.418C100.488 171.199 100.201 171.09 99.8496 171.09C99.3223 171.09 98.8105 171.324 98.3145 171.793C97.8223 172.262 97.4199 172.879 97.1074 173.645C96.7988 174.406 96.6445 175.131 96.6445 175.818C96.6445 176.451 96.7812 176.955 97.0547 177.33C97.3281 177.701 97.6914 177.887 98.1445 177.887C98.9102 177.887 99.6426 177.346 100.342 176.264L101.443 176.105C101.58 176.086 101.648 176.119 101.648 176.205C101.648 176.244 101.596 176.412 101.49 176.709C101.385 177.006 101.24 177.502 101.057 178.197C101.662 177.846 102.131 177.457 102.463 177.031V177.705ZM99.0527 179.65C98.0371 180.158 97.5293 180.658 97.5293 181.15C97.5293 181.412 97.6543 181.543 97.9043 181.543C98.3965 181.543 98.7793 180.912 99.0527 179.65ZM106.84 177.705C105.859 178.666 105.104 179.146 104.572 179.146C104.334 179.146 104.133 179.047 103.969 178.848C103.805 178.645 103.723 178.395 103.723 178.098C103.723 177.547 104.018 176.809 104.607 175.883C104.318 176.031 104.002 176.135 103.658 176.193C103.404 176.662 103.006 177.166 102.463 177.705H102.328V177.178C102.633 176.861 102.908 176.521 103.154 176.158C102.818 176.01 102.65 175.789 102.65 175.496C102.65 175.195 102.752 174.875 102.955 174.535C103.162 174.191 103.445 174.02 103.805 174.02C104.109 174.02 104.262 174.176 104.262 174.488C104.262 174.734 104.174 175.086 103.998 175.543C104.646 175.473 105.213 174.977 105.697 174.055L106.23 174.031L105.686 175.531C105.459 176.164 105.312 176.596 105.246 176.826C105.18 177.053 105.146 177.254 105.146 177.43C105.146 177.594 105.184 177.725 105.258 177.822C105.336 177.92 105.439 177.969 105.568 177.969C105.709 177.969 105.844 177.922 105.973 177.828C106.102 177.73 106.391 177.465 106.84 177.031V177.705ZM113.098 177.705C112.473 178.299 112.025 178.686 111.756 178.865C111.486 179.045 111.229 179.135 110.982 179.135C110.365 179.135 110.074 178.59 110.109 177.5C109.719 178.059 109.357 178.471 109.025 178.736C108.697 179.002 108.357 179.135 108.006 179.135C107.662 179.135 107.369 178.975 107.127 178.654C106.889 178.33 106.77 177.934 106.77 177.465C106.77 176.879 106.93 176.32 107.25 175.789C107.574 175.258 107.988 174.828 108.492 174.5C108.996 174.172 109.441 174.008 109.828 174.008C110.316 174.008 110.658 174.232 110.854 174.682L112.049 174.02H112.377L111.861 175.736C111.596 176.6 111.463 177.191 111.463 177.512C111.463 177.848 111.582 178.016 111.82 178.016C111.973 178.016 112.141 177.936 112.324 177.775C112.508 177.611 112.766 177.363 113.098 177.031V177.705ZM108.809 178.027C109.199 178.027 109.566 177.695 109.91 177.031C110.258 176.363 110.432 175.748 110.432 175.186C110.432 174.967 110.383 174.797 110.285 174.676C110.188 174.551 110.057 174.488 109.893 174.488C109.502 174.488 109.131 174.82 108.779 175.484C108.432 176.148 108.258 176.76 108.258 177.318C108.258 177.529 108.309 177.701 108.41 177.834C108.516 177.963 108.648 178.027 108.809 178.027ZM118.852 177.705C117.949 178.658 117.176 179.135 116.531 179.135C116.27 179.135 116.059 179.043 115.898 178.859C115.738 178.676 115.658 178.43 115.658 178.121C115.658 177.703 115.83 177.064 116.174 176.205C116.357 175.744 116.449 175.451 116.449 175.326C116.449 175.201 116.4 175.139 116.303 175.139C116.248 175.139 116.176 175.166 116.086 175.221C116.004 175.275 115.908 175.352 115.799 175.449C115.701 175.539 115.592 175.648 115.471 175.777C115.365 175.887 115.252 176.012 115.131 176.152L114.803 176.533C114.658 176.709 114.568 176.895 114.533 177.09C114.475 177.422 114.436 177.727 114.416 178.004C114.404 178.211 114.398 178.49 114.398 178.842L113.104 179.146C113.061 178.619 113.039 178.227 113.039 177.969C113.039 177.34 113.111 176.744 113.256 176.182C113.404 175.619 113.641 174.986 113.965 174.283L115.395 174.008C115.094 174.816 114.896 175.453 114.803 175.918C115.443 175.203 115.951 174.709 116.326 174.436C116.705 174.158 117.041 174.02 117.334 174.02C117.533 174.02 117.699 174.096 117.832 174.248C117.965 174.396 118.031 174.584 118.031 174.811C118.031 175.186 117.863 175.803 117.527 176.662C117.297 177.252 117.182 177.635 117.182 177.811C117.182 178.045 117.277 178.162 117.469 178.162C117.754 178.162 118.215 177.785 118.852 177.031V177.705ZM125.109 177.705C124.484 178.299 124.037 178.686 123.768 178.865C123.498 179.045 123.24 179.135 122.994 179.135C122.377 179.135 122.086 178.59 122.121 177.5C121.73 178.059 121.369 178.471 121.037 178.736C120.709 179.002 120.369 179.135 120.018 179.135C119.674 179.135 119.381 178.975 119.139 178.654C118.9 178.33 118.781 177.934 118.781 177.465C118.781 176.879 118.941 176.32 119.262 175.789C119.586 175.258 120 174.828 120.504 174.5C121.008 174.172 121.453 174.008 121.84 174.008C122.328 174.008 122.67 174.232 122.865 174.682L124.061 174.02H124.389L123.873 175.736C123.607 176.6 123.475 177.191 123.475 177.512C123.475 177.848 123.594 178.016 123.832 178.016C123.984 178.016 124.152 177.936 124.336 177.775C124.52 177.611 124.777 177.363 125.109 177.031V177.705ZM120.82 178.027C121.211 178.027 121.578 177.695 121.922 177.031C122.27 176.363 122.443 175.748 122.443 175.186C122.443 174.967 122.395 174.797 122.297 174.676C122.199 174.551 122.068 174.488 121.904 174.488C121.514 174.488 121.143 174.82 120.791 175.484C120.443 176.148 120.27 176.76 120.27 177.318C120.27 177.529 120.32 177.701 120.422 177.834C120.527 177.963 120.66 178.027 120.82 178.027ZM128.484 177.705C127.992 178.193 127.566 178.555 127.207 178.789C126.848 179.02 126.506 179.135 126.182 179.135C125.846 179.135 125.572 178.994 125.361 178.713C125.154 178.428 125.051 178.055 125.051 177.594C125.051 177.188 125.148 176.65 125.344 175.982L125.602 175.098L125.15 175.121L125.338 174.201L125.895 174.178L126.445 172.35L128.016 172.027L127.418 174.066L128.232 174.02L128.039 174.922L127.131 174.992L126.738 176.305C126.605 176.762 126.539 177.125 126.539 177.395C126.539 177.578 126.584 177.729 126.674 177.846C126.768 177.959 126.887 178.016 127.031 178.016C127.23 178.016 127.428 177.953 127.623 177.828C127.818 177.699 128.105 177.434 128.484 177.031V177.705ZM134.238 177.705C133.312 178.666 132.551 179.146 131.953 179.146C131.688 179.146 131.467 179.057 131.291 178.877C131.119 178.693 131.033 178.463 131.033 178.186C131.033 177.717 131.213 177.057 131.572 176.205C131.764 175.744 131.859 175.443 131.859 175.303C131.859 175.143 131.783 175.062 131.631 175.062C131.475 175.062 131.248 175.17 130.951 175.385C130.654 175.596 130.342 175.885 130.014 176.252C129.877 176.971 129.809 177.834 129.809 178.842L128.502 179.146C128.451 178.736 128.426 178.291 128.426 177.811C128.426 176.646 128.586 175.562 128.906 174.559C129.227 173.555 129.73 172.49 130.418 171.365C130.93 171.158 131.375 170.99 131.754 170.861C132.137 170.729 132.355 170.662 132.41 170.662C132.512 170.662 132.598 170.744 132.668 170.908C132.738 171.072 132.773 171.277 132.773 171.523C132.773 171.938 132.646 172.396 132.393 172.9C132.139 173.4 131.74 174.006 131.197 174.717C131.717 174.416 132.062 174.227 132.234 174.148C132.406 174.07 132.582 174.031 132.762 174.031C132.961 174.031 133.121 174.104 133.242 174.248C133.367 174.389 133.43 174.576 133.43 174.811C133.43 175.162 133.289 175.707 133.008 176.445C132.73 177.184 132.592 177.646 132.592 177.834C132.592 177.92 132.617 177.996 132.668 178.062C132.723 178.129 132.785 178.162 132.855 178.162C133.105 178.162 133.566 177.785 134.238 177.031V177.705ZM130.178 175.303C131.572 173.682 132.27 172.486 132.27 171.717C132.27 171.482 132.205 171.365 132.076 171.365C131.861 171.365 131.555 171.75 131.156 172.52C130.758 173.289 130.432 174.217 130.178 175.303ZM146.432 174.43C146.85 174.43 147.154 174.266 147.346 173.938C147.537 173.605 147.633 173.244 147.633 172.854C147.633 172.314 147.453 171.885 147.094 171.564C146.738 171.24 146.258 171.078 145.652 171.078C144.84 171.078 144.109 171.314 143.461 171.787C142.812 172.256 142.488 172.775 142.488 173.346C142.488 173.686 142.672 173.934 143.039 174.09C143.133 174.129 143.18 174.166 143.18 174.201V174.383C143.18 174.469 143.023 174.576 142.711 174.705C142.402 174.834 142.199 174.898 142.102 174.898C141.949 174.898 141.795 174.775 141.639 174.529C141.482 174.279 141.404 174.021 141.404 173.756C141.404 173.291 141.594 172.805 141.973 172.297C142.355 171.789 142.893 171.381 143.584 171.072C144.279 170.764 145.076 170.609 145.975 170.609C146.936 170.609 147.713 170.811 148.307 171.213C148.904 171.615 149.203 172.131 149.203 172.76C149.203 173.697 148.539 174.338 147.211 174.682C148.254 175.006 148.775 175.645 148.775 176.598C148.775 177.293 148.514 177.891 147.99 178.391C147.471 178.887 146.848 179.135 146.121 179.135C145.801 179.135 145.533 179.07 145.318 178.941C145.104 178.812 144.996 178.656 144.996 178.473C144.996 178.352 145.064 178.188 145.201 177.98C145.338 177.773 145.465 177.67 145.582 177.67C145.742 177.67 145.838 177.857 145.869 178.232C145.893 178.529 145.984 178.678 146.145 178.678C146.406 178.678 146.637 178.387 146.836 177.805C147.039 177.223 147.141 176.637 147.141 176.047C147.141 175.332 146.885 174.936 146.373 174.857L146.432 174.43ZM146.625 172.162C146.398 172.365 146.227 172.598 146.109 172.859C145.996 173.117 145.895 173.625 145.805 174.383C145.719 175.141 145.609 175.777 145.477 176.293C145.344 176.805 145.111 177.283 144.779 177.729C144.451 178.17 144.033 178.518 143.525 178.771C143.021 179.021 142.479 179.146 141.896 179.146C141.377 179.146 140.979 179.037 140.701 178.818C140.428 178.6 140.291 178.289 140.291 177.887C140.291 177.742 140.303 177.621 140.326 177.523C140.51 177.355 140.729 177.209 140.982 177.084C141.236 176.955 141.406 176.891 141.492 176.891C141.633 176.891 141.703 176.998 141.703 177.213C141.703 177.248 141.688 177.371 141.656 177.582C141.625 177.789 141.609 177.914 141.609 177.957C141.609 178.438 141.816 178.678 142.23 178.678C142.648 178.678 143.012 178.406 143.32 177.863C143.629 177.316 143.85 176.502 143.982 175.42C144.119 174.338 144.307 173.592 144.545 173.182C144.787 172.768 145.092 172.451 145.459 172.232C145.826 172.01 146.111 171.898 146.314 171.898C146.416 171.898 146.52 171.986 146.625 172.162ZM153.738 177.705C153.242 178.193 152.797 178.555 152.402 178.789C152.008 179.02 151.572 179.135 151.096 179.135C150.564 179.135 150.135 178.965 149.807 178.625C149.482 178.285 149.32 177.838 149.32 177.283C149.32 176.455 149.607 175.707 150.182 175.039C150.756 174.367 151.393 174.031 152.092 174.031C152.455 174.031 152.746 174.125 152.965 174.312C153.184 174.5 153.293 174.746 153.293 175.051C153.293 175.859 152.434 176.516 150.715 177.02C150.871 177.781 151.279 178.162 151.939 178.162C152.197 178.162 152.443 178.094 152.678 177.957C152.912 177.816 153.266 177.508 153.738 177.031V177.705ZM150.668 176.621C151.668 176.34 152.168 175.82 152.168 175.062C152.168 174.688 152.031 174.5 151.758 174.5C151.5 174.5 151.254 174.697 151.02 175.092C150.785 175.482 150.668 175.992 150.668 176.621ZM158.121 177.705C157.141 178.666 156.385 179.146 155.854 179.146C155.615 179.146 155.414 179.047 155.25 178.848C155.086 178.645 155.004 178.395 155.004 178.098C155.004 177.547 155.299 176.809 155.889 175.883C155.6 176.031 155.283 176.135 154.939 176.193C154.686 176.662 154.287 177.166 153.744 177.705H153.609V177.178C153.914 176.861 154.189 176.521 154.436 176.158C154.1 176.01 153.932 175.789 153.932 175.496C153.932 175.195 154.033 174.875 154.236 174.535C154.443 174.191 154.727 174.02 155.086 174.02C155.391 174.02 155.543 174.176 155.543 174.488C155.543 174.734 155.455 175.086 155.279 175.543C155.928 175.473 156.494 174.977 156.979 174.055L157.512 174.031L156.967 175.531C156.74 176.164 156.594 176.596 156.527 176.826C156.461 177.053 156.428 177.254 156.428 177.43C156.428 177.594 156.465 177.725 156.539 177.822C156.617 177.92 156.721 177.969 156.85 177.969C156.99 177.969 157.125 177.922 157.254 177.828C157.383 177.73 157.672 177.465 158.121 177.031V177.705ZM163.875 177.705C163.379 178.225 162.785 178.607 162.094 178.854C161.77 179.865 161.357 180.645 160.857 181.191C160.361 181.738 159.834 182.012 159.275 182.012C158.971 182.012 158.725 181.916 158.537 181.725C158.35 181.533 158.256 181.281 158.256 180.969C158.256 180.551 158.441 180.176 158.812 179.844C159.188 179.512 159.822 179.191 160.717 178.883L160.969 177.729C160.594 178.15 160.27 178.461 159.996 178.66C159.723 178.855 159.447 178.953 159.17 178.953C158.846 178.953 158.58 178.801 158.373 178.496C158.166 178.191 158.062 177.795 158.062 177.307C158.062 176.51 158.365 175.764 158.971 175.068C159.58 174.369 160.227 174.02 160.91 174.02C161.289 174.02 161.625 174.18 161.918 174.5C162.094 174.438 162.322 174.344 162.604 174.219L163.02 174.031H163.154C163.002 174.492 162.885 174.941 162.803 175.379L162.252 178.314C162.779 178.115 163.32 177.688 163.875 177.031V177.705ZM160.102 177.898C160.379 177.898 160.625 177.734 160.84 177.406C161.055 177.078 161.221 176.662 161.338 176.158C161.459 175.654 161.52 175.305 161.52 175.109C161.52 174.926 161.473 174.775 161.379 174.658C161.289 174.537 161.176 174.477 161.039 174.477C160.625 174.477 160.264 174.756 159.955 175.314C159.646 175.873 159.492 176.441 159.492 177.02C159.492 177.289 159.547 177.504 159.656 177.664C159.77 177.82 159.918 177.898 160.102 177.898ZM160.594 179.398C159.332 179.852 158.701 180.375 158.701 180.969C158.701 181.145 158.754 181.287 158.859 181.396C158.965 181.51 159.1 181.566 159.264 181.566C159.545 181.566 159.789 181.389 159.996 181.033C160.203 180.678 160.402 180.133 160.594 179.398ZM176.068 174.43C176.486 174.43 176.791 174.266 176.982 173.938C177.174 173.605 177.27 173.244 177.27 172.854C177.27 172.314 177.09 171.885 176.73 171.564C176.375 171.24 175.895 171.078 175.289 171.078C174.477 171.078 173.746 171.314 173.098 171.787C172.449 172.256 172.125 172.775 172.125 173.346C172.125 173.686 172.309 173.934 172.676 174.09C172.77 174.129 172.816 174.166 172.816 174.201V174.383C172.816 174.469 172.66 174.576 172.348 174.705C172.039 174.834 171.836 174.898 171.738 174.898C171.586 174.898 171.432 174.775 171.275 174.529C171.119 174.279 171.041 174.021 171.041 173.756C171.041 173.291 171.23 172.805 171.609 172.297C171.992 171.789 172.529 171.381 173.221 171.072C173.916 170.764 174.713 170.609 175.611 170.609C176.572 170.609 177.35 170.811 177.943 171.213C178.541 171.615 178.84 172.131 178.84 172.76C178.84 173.697 178.176 174.338 176.848 174.682C177.891 175.006 178.412 175.645 178.412 176.598C178.412 177.293 178.15 177.891 177.627 178.391C177.107 178.887 176.484 179.135 175.758 179.135C175.438 179.135 175.17 179.07 174.955 178.941C174.74 178.812 174.633 178.656 174.633 178.473C174.633 178.352 174.701 178.188 174.838 177.98C174.975 177.773 175.102 177.67 175.219 177.67C175.379 177.67 175.475 177.857 175.506 178.232C175.529 178.529 175.621 178.678 175.781 178.678C176.043 178.678 176.273 178.387 176.473 177.805C176.676 177.223 176.777 176.637 176.777 176.047C176.777 175.332 176.521 174.936 176.01 174.857L176.068 174.43ZM176.262 172.162C176.035 172.365 175.863 172.598 175.746 172.859C175.633 173.117 175.531 173.625 175.441 174.383C175.355 175.141 175.246 175.777 175.113 176.293C174.98 176.805 174.748 177.283 174.416 177.729C174.088 178.17 173.67 178.518 173.162 178.771C172.658 179.021 172.115 179.146 171.533 179.146C171.014 179.146 170.615 179.037 170.338 178.818C170.064 178.6 169.928 178.289 169.928 177.887C169.928 177.742 169.939 177.621 169.963 177.523C170.146 177.355 170.365 177.209 170.619 177.084C170.873 176.955 171.043 176.891 171.129 176.891C171.27 176.891 171.34 176.998 171.34 177.213C171.34 177.248 171.324 177.371 171.293 177.582C171.262 177.789 171.246 177.914 171.246 177.957C171.246 178.438 171.453 178.678 171.867 178.678C172.285 178.678 172.648 178.406 172.957 177.863C173.266 177.316 173.486 176.502 173.619 175.42C173.756 174.338 173.943 173.592 174.182 173.182C174.424 172.768 174.729 172.451 175.096 172.232C175.463 172.01 175.748 171.898 175.951 171.898C176.053 171.898 176.156 171.986 176.262 172.162ZM183.375 177.705C182.879 178.193 182.434 178.555 182.039 178.789C181.645 179.02 181.209 179.135 180.732 179.135C180.201 179.135 179.771 178.965 179.443 178.625C179.119 178.285 178.957 177.838 178.957 177.283C178.957 176.455 179.244 175.707 179.818 175.039C180.393 174.367 181.029 174.031 181.729 174.031C182.092 174.031 182.383 174.125 182.602 174.312C182.82 174.5 182.93 174.746 182.93 175.051C182.93 175.859 182.07 176.516 180.352 177.02C180.508 177.781 180.916 178.162 181.576 178.162C181.834 178.162 182.08 178.094 182.314 177.957C182.549 177.816 182.902 177.508 183.375 177.031V177.705ZM180.305 176.621C181.305 176.34 181.805 175.82 181.805 175.062C181.805 174.688 181.668 174.5 181.395 174.5C181.137 174.5 180.891 174.697 180.656 175.092C180.422 175.482 180.305 175.992 180.305 176.621ZM187.758 177.705C186.777 178.666 186.021 179.146 185.49 179.146C185.252 179.146 185.051 179.047 184.887 178.848C184.723 178.645 184.641 178.395 184.641 178.098C184.641 177.547 184.936 176.809 185.525 175.883C185.236 176.031 184.92 176.135 184.576 176.193C184.322 176.662 183.924 177.166 183.381 177.705H183.246V177.178C183.551 176.861 183.826 176.521 184.072 176.158C183.736 176.01 183.568 175.789 183.568 175.496C183.568 175.195 183.67 174.875 183.873 174.535C184.08 174.191 184.363 174.02 184.723 174.02C185.027 174.02 185.18 174.176 185.18 174.488C185.18 174.734 185.092 175.086 184.916 175.543C185.564 175.473 186.131 174.977 186.615 174.055L187.148 174.031L186.604 175.531C186.377 176.164 186.23 176.596 186.164 176.826C186.098 177.053 186.064 177.254 186.064 177.43C186.064 177.594 186.102 177.725 186.176 177.822C186.254 177.92 186.357 177.969 186.486 177.969C186.627 177.969 186.762 177.922 186.891 177.828C187.02 177.73 187.309 177.465 187.758 177.031V177.705ZM193.512 177.705C192.609 178.658 191.836 179.135 191.191 179.135C190.93 179.135 190.719 179.043 190.559 178.859C190.398 178.676 190.318 178.43 190.318 178.121C190.318 177.703 190.49 177.064 190.834 176.205C191.018 175.744 191.109 175.451 191.109 175.326C191.109 175.201 191.061 175.139 190.963 175.139C190.908 175.139 190.836 175.166 190.746 175.221C190.664 175.275 190.568 175.352 190.459 175.449C190.361 175.539 190.252 175.648 190.131 175.777C190.025 175.887 189.912 176.012 189.791 176.152L189.463 176.533C189.318 176.709 189.229 176.895 189.193 177.09C189.135 177.422 189.096 177.727 189.076 178.004C189.064 178.211 189.059 178.49 189.059 178.842L187.764 179.146C187.721 178.619 187.699 178.227 187.699 177.969C187.699 177.34 187.771 176.744 187.916 176.182C188.064 175.619 188.301 174.986 188.625 174.283L190.055 174.008C189.754 174.816 189.557 175.453 189.463 175.918C190.104 175.203 190.611 174.709 190.986 174.436C191.365 174.158 191.701 174.02 191.994 174.02C192.193 174.02 192.359 174.096 192.492 174.248C192.625 174.396 192.691 174.584 192.691 174.811C192.691 175.186 192.523 175.803 192.188 176.662C191.957 177.252 191.842 177.635 191.842 177.811C191.842 178.045 191.938 178.162 192.129 178.162C192.414 178.162 192.875 177.785 193.512 177.031V177.705ZM196.887 177.705C196.395 178.193 195.969 178.555 195.609 178.789C195.25 179.02 194.908 179.135 194.584 179.135C194.248 179.135 193.975 178.994 193.764 178.713C193.557 178.428 193.453 178.055 193.453 177.594C193.453 177.188 193.551 176.65 193.746 175.982L194.004 175.098L193.553 175.121L193.74 174.201L194.297 174.178L194.848 172.35L196.418 172.027L195.82 174.066L196.635 174.02L196.441 174.922L195.533 174.992L195.141 176.305C195.008 176.762 194.941 177.125 194.941 177.395C194.941 177.578 194.986 177.729 195.076 177.846C195.17 177.959 195.289 178.016 195.434 178.016C195.633 178.016 195.83 177.953 196.025 177.828C196.221 177.699 196.508 177.434 196.887 177.031V177.705ZM198.691 174.271C198.961 174.201 199.232 174.145 199.506 174.102C199.779 174.055 199.943 174.031 199.998 174.031C200.037 174.031 200.057 174.047 200.057 174.078C200.057 174.137 200.041 174.197 200.01 174.26C199.947 174.439 199.916 174.611 199.916 174.775C199.916 174.979 200.033 175.256 200.268 175.607C200.502 175.959 200.619 176.285 200.619 176.586C200.619 177.184 200.332 177.76 199.758 178.314C199.188 178.869 198.596 179.146 197.982 179.146C197.717 179.146 197.475 179.076 197.256 178.936C197.037 178.795 196.928 178.645 196.928 178.484C196.928 178.391 197.035 178.213 197.25 177.951C197.469 177.689 197.625 177.559 197.719 177.559C197.844 177.559 197.955 177.719 198.053 178.039C198.15 178.359 198.318 178.52 198.557 178.52C198.795 178.52 199.018 178.41 199.225 178.191C199.436 177.969 199.541 177.73 199.541 177.477C199.541 177.23 199.408 176.902 199.143 176.492C198.877 176.082 198.701 175.738 198.615 175.461C198.162 176.191 197.588 176.939 196.893 177.705H196.758V177.178C197.715 176.158 198.359 175.189 198.691 174.271ZM203.566 174.271C203.836 174.201 204.107 174.145 204.381 174.102C204.654 174.055 204.818 174.031 204.873 174.031C204.912 174.031 204.932 174.047 204.932 174.078C204.932 174.137 204.916 174.197 204.885 174.26C204.822 174.439 204.791 174.611 204.791 174.775C204.791 174.979 204.908 175.256 205.143 175.607C205.377 175.959 205.494 176.285 205.494 176.586C205.494 177.184 205.207 177.76 204.633 178.314C204.062 178.869 203.471 179.146 202.857 179.146C202.592 179.146 202.35 179.076 202.131 178.936C201.912 178.795 201.803 178.645 201.803 178.484C201.803 178.391 201.91 178.213 202.125 177.951C202.344 177.689 202.5 177.559 202.594 177.559C202.719 177.559 202.83 177.719 202.928 178.039C203.025 178.359 203.193 178.52 203.432 178.52C203.67 178.52 203.893 178.41 204.1 178.191C204.311 177.969 204.416 177.73 204.416 177.477C204.416 177.23 204.283 176.902 204.018 176.492C203.752 176.082 203.576 175.738 203.49 175.461C203.037 176.191 202.463 176.939 201.768 177.705H201.633V177.178C202.59 176.158 203.234 175.189 203.566 174.271ZM211.898 177.705C211.699 177.881 211.506 178.006 211.318 178.08C211.131 178.15 210.982 178.186 210.873 178.186C210.592 178.186 210.312 178.076 210.035 177.857C209.473 178.709 208.828 179.135 208.102 179.135C207.648 179.135 207.281 178.965 207 178.625C206.719 178.285 206.578 177.834 206.578 177.271C206.578 176.381 206.895 175.617 207.527 174.98C208.16 174.34 208.916 174.02 209.795 174.02C210.127 174.02 210.369 174.057 210.521 174.131C210.678 174.201 210.773 174.285 210.809 174.383C210.844 174.48 210.861 174.604 210.861 174.752C210.861 175.482 210.662 176.379 210.264 177.441C210.463 177.625 210.672 177.717 210.891 177.717C211.152 177.717 211.488 177.488 211.898 177.031V177.705ZM209.965 174.43C209.906 174.406 209.822 174.395 209.713 174.395C209.205 174.395 208.807 174.66 208.518 175.191C208.232 175.723 208.09 176.344 208.09 177.055C208.09 177.449 208.152 177.756 208.277 177.975C208.402 178.193 208.576 178.303 208.799 178.303C209.076 178.303 209.377 178.047 209.701 177.535C209.334 177.074 209.15 176.578 209.15 176.047C209.15 175.422 209.422 174.883 209.965 174.43ZM217.652 177.705C216.75 178.658 215.977 179.135 215.332 179.135C215.07 179.135 214.859 179.043 214.699 178.859C214.539 178.676 214.459 178.43 214.459 178.121C214.459 177.703 214.631 177.064 214.975 176.205C215.158 175.744 215.25 175.451 215.25 175.326C215.25 175.201 215.201 175.139 215.104 175.139C215.049 175.139 214.977 175.166 214.887 175.221C214.805 175.275 214.709 175.352 214.6 175.449C214.502 175.539 214.393 175.648 214.271 175.777C214.166 175.887 214.053 176.012 213.932 176.152L213.604 176.533C213.459 176.709 213.369 176.895 213.334 177.09C213.275 177.422 213.236 177.727 213.217 178.004C213.205 178.211 213.199 178.49 213.199 178.842L211.904 179.146C211.861 178.619 211.84 178.227 211.84 177.969C211.84 177.34 211.912 176.744 212.057 176.182C212.205 175.619 212.441 174.986 212.766 174.283L214.195 174.008C213.895 174.816 213.697 175.453 213.604 175.918C214.244 175.203 214.752 174.709 215.127 174.436C215.506 174.158 215.842 174.02 216.135 174.02C216.334 174.02 216.5 174.096 216.633 174.248C216.766 174.396 216.832 174.584 216.832 174.811C216.832 175.186 216.664 175.803 216.328 176.662C216.098 177.252 215.982 177.635 215.982 177.811C215.982 178.045 216.078 178.162 216.27 178.162C216.555 178.162 217.016 177.785 217.652 177.031V177.705Z" fill="black"/>
<circle cx="45" cy="176" r="1" fill="black"/>
<circle cx="167" cy="176" r="1" fill="black"/>
<circle cx="137" cy="176" r="1" fill="black"/>
<circle cx="92" cy="176" r="1" fill="black"/>
</svg>
