<svg width="238" height="154" viewBox="0 0 238 154" fill="none" xmlns="http://www.w3.org/2000/svg">
<path d="M19.4883 1.68359H43.2539L36.1953 8.38672V39.0586L38.9883 35.8594V8.79297L44.6758 3.25781L45.4375 4.375L40.207 9.45312V34.2852L55.9492 15.4961C58.2174 12.7878 59.3516 10.3503 59.3516 8.18359C59.3516 6.89714 58.7083 5.67839 57.4219 4.52734C56.1354 3.34245 54.5781 2.5638 52.75 2.19141V1.68359H79.5117V2.19141C73.6549 3.61328 67.3411 8.38672 60.5703 16.5117L53.5117 24.8906L72.25 61.3008L80.7812 66.8359H54.4258L61.0781 61.8594L48.4844 36.6719L40.207 46.7773V61.3008L48.4844 71H22.4336L21.0625 69.6289H45.4375L38.9883 61.8594V46.1172L47.8242 35.25L46.707 33.0156L36.1953 45.5078V61.3008L42.3398 66.8359H19.082L26.0391 60.8945V7.72656L19.4883 1.68359ZM82.0508 6.30469C77.0404 6.64323 72.0469 9.57161 67.0703 15.0898L58.1836 24.9414L76.1094 61.3008L90.4805 71H58.1836L56.7617 69.6289H86.1641L75.3477 62.2656L56.7617 24.9414L66.207 14.2773C71.1497 8.75911 76.2448 5.74609 81.4922 5.23828L82.0508 6.30469ZM146.898 3.46094L137.402 22.1484C136.793 16.8333 135.117 12.7708 132.375 9.96094C129.667 7.15104 126.078 5.74609 121.609 5.74609C115.245 5.74609 110.285 8.21745 106.73 13.1602C103.21 18.1029 101.449 25.026 101.449 33.9297C101.449 53.5312 109.473 63.332 125.52 63.332H133.695V36.9766H120.898C118.122 36.9766 116.125 36.8242 114.906 36.5195C113.721 36.2148 112.57 35.5547 111.453 34.5391V33.2695C112.672 34.1836 113.891 34.793 115.109 35.0977C116.328 35.3685 118.309 35.5039 121.051 35.5039H133.695V32.7617H119.578H117.293C112.249 32.7617 109.727 30.9336 109.727 27.2773C109.727 25.8555 110.15 24.6367 110.996 23.6211C111.842 22.6055 112.858 22.0977 114.043 22.0977C114.923 22.0977 115.685 22.4193 116.328 23.0625C117.005 23.7057 117.344 24.4674 117.344 25.3477C117.344 26.8372 116.802 27.7005 115.719 27.9375L114.5 28.1914C114.094 28.293 113.891 28.4622 113.891 28.6992C113.891 29.1393 114.449 29.3594 115.566 29.3594H117.293H150.809L143.801 36.2148V61.25L150.301 66.8359H124.352H119.223C114.923 66.8359 111.368 66.3112 108.559 65.2617C105.749 64.2122 102.905 62.3503 100.027 59.6758C93.2227 53.4466 89.8203 45.1016 89.8203 34.6406C89.8203 23.8411 93.0365 15.4115 99.4688 9.35156C105.089 4.03646 111.758 1.37891 119.477 1.37891C122.93 1.37891 126.891 1.98828 131.359 3.20703C135.93 4.45964 138.943 5.08594 140.398 5.08594C142.531 5.08594 144.698 4.54427 146.898 3.46094ZM149.945 6.66016L141.262 23.7227L140.043 23.1641L148.777 6.05078L149.945 6.66016ZM133.695 14.3789L132.781 13.7188C128.922 10.9766 125.401 9.60547 122.219 9.60547C118.359 9.60547 115.025 10.9766 112.215 13.7188C110.184 15.75 108.711 18.4076 107.797 21.6914C106.917 24.9753 106.477 29.3086 106.477 34.6914C106.477 41.5299 107.154 46.7604 108.508 50.3828C109.862 54.0052 112.35 57.2721 115.973 60.1836V60.7422C112.046 58.4062 109.219 55.1224 107.492 50.8906C105.766 46.625 104.902 40.8529 104.902 33.5742C104.902 25.5508 106.409 19.3216 109.422 14.8867C112.435 10.418 116.667 8.18359 122.117 8.18359C126.857 8.18359 130.716 10.1471 133.695 14.0742V14.3789ZM152.992 32.2539L147.762 37.4844V61.3008L156.191 71L136.031 70.8477L117.75 71.0508C116.599 71.0508 115.719 71.0169 115.109 70.9492C112.977 70.7122 110.827 69.7812 108.66 68.1562H109.727C112.029 69.1719 115.177 69.6797 119.172 69.6797L121.711 69.6289H153.348L146.34 61.8594V36.9766L152.18 31.0859L152.992 32.2539ZM161.676 8.58984C169.733 3.27474 178.772 0.617188 188.793 0.617188C196.072 0.617188 202.013 2.25911 206.617 5.54297C211.221 8.79297 213.523 13.0078 213.523 18.1875C213.523 25.0938 209.529 29.7148 201.539 32.0508V32.6094C202.352 32.8125 203.333 33.0833 204.484 33.4219C208.242 32.5417 211.188 30.7474 213.32 28.0391C215.487 25.3307 216.57 22.0638 216.57 18.2383C216.57 13.431 214.59 9.16536 210.629 5.44141V5.13672L211.188 5.59375C215.622 9.01302 217.84 13.3971 217.84 18.7461C217.84 26.1263 214.014 31.2721 206.363 34.1836C209.681 35.707 212.254 37.8737 214.082 40.6836C215.944 43.4935 216.875 46.6589 216.875 50.1797C216.875 55.224 215.047 59.2695 211.391 62.3164C207.734 65.3294 202.859 66.8359 196.766 66.8359H160.406L167.414 60.8438V38.8555C165.417 38.8555 163.081 39.0586 160.406 39.4648L160 37.9922C163.013 37.6875 165.484 37.5352 167.414 37.5352V34.8438H166.145C164.249 34.8438 161.862 34.9792 158.984 35.25L161.219 30.375L162.031 30.4258C163.352 30.5273 164.35 30.5781 165.027 30.5781C166.043 30.5781 166.839 30.6289 167.414 30.7305V11.6367L161.676 8.58984ZM177.57 7.82812V30.7305C177.943 30.6966 178.197 30.6797 178.332 30.6797L179.246 30.7305C179.382 30.7305 179.669 30.7305 180.109 30.7305V9.96094C183.021 8.60677 185.865 7.92969 188.641 7.92969C191.823 7.92969 194.328 8.50521 196.156 9.65625C198.018 10.8073 199.592 12.7708 200.879 15.5469L199.457 14.7344C196.918 10.9089 193.296 8.99609 188.59 8.99609C185.949 8.99609 183.579 9.74089 181.48 11.2305V30.7305H183.613C190.079 30.7305 194.887 29.6641 198.035 27.5312C201.217 25.3646 202.809 22.0638 202.809 17.6289C202.809 13.7357 201.488 10.6042 198.848 8.23438C196.241 5.83073 192.805 4.62891 188.539 4.62891C184.781 4.62891 181.125 5.69531 177.57 7.82812ZM177.57 34.8945V62.875H180.109V37.9414C182.513 37.7721 184.24 37.6875 185.289 37.6875C190.909 37.6875 194.971 38.2122 197.477 39.2617C200.016 40.3112 202.03 42.3086 203.52 45.2539H202.91C201.251 42.918 199.169 41.3099 196.664 40.4297C194.159 39.5156 190.486 39.0586 185.645 39.0586L181.48 39.1602V62.875H183.105L190.469 62.6211C200.016 61.944 204.789 57.306 204.789 48.707C204.789 43.3242 203.215 39.651 200.066 37.6875C196.918 35.6901 191.027 34.6914 182.395 34.6914C181.548 34.6914 179.94 34.7591 177.57 34.8945ZM215.605 38.4492C219.228 41.2591 221.039 45.5247 221.039 51.2461C221.039 57.0013 219.025 61.7578 214.996 65.5156C211.069 69.1719 205.297 71 197.68 71H163.148L162.285 69.6289H194.328C201.302 69.6289 206.329 68.918 209.41 67.4961C216.249 64.3138 219.668 58.7786 219.668 50.8906C219.668 46.4896 218.111 42.4948 214.996 38.9062L215.605 38.4492Z" fill="#E6CCA1"/>
<path d="M56.0625 75.625C53.1667 78.8125 50.9792 81.9896 49.5 85.1562C48.0417 88.3229 46.3125 93.5625 44.3125 100.875L38.9062 120.562L39.5312 123L43.375 126.438H29.125L33.2188 123L27.6875 102.969L22.3125 122.562L27.6875 129H11.7188L11.0938 128.156H25.9688L21.2812 122.75L27.1875 101.375L26.1562 97.6562L19.75 121.062L20.25 123L23.9062 126.438H9.625L13.875 123L4.78125 90.2812L0.09375 86.3438H15.375L11.0938 90.2812L18.25 116.031L19.3438 112.25L13.3125 90.75L16.1562 88.2188L16.875 88.7188L14.2812 91.0312L19.75 110.688L26.4375 86.3438H29.375L37.5 115.781L38.5 112.25L31.3125 86.3438H32.1875L38.9062 110.688L41.8438 100.125C43.6771 93.5 44.5938 89.1875 44.5938 87.1875C44.5938 84.9583 43.5521 83.2083 41.4688 81.9375C43.9062 81.1667 46.5208 80.1146 49.3125 78.7812C52.1042 77.4479 54.1875 76.25 55.5625 75.1875L56.0625 75.625ZM57.9375 78C55.4375 80.75 53.375 83.8542 51.75 87.3125C50.1458 90.7708 48.5 95.6042 46.8125 101.812L41.2812 122L47.2812 129H31.25L30.5312 128.156H45.375L40.3125 122.312L46.0625 101.375C47.7708 95.1667 49.4062 90.3958 50.9688 87.0625C52.5312 83.7083 54.6146 80.5104 57.2188 77.4688L57.9375 78ZM54.5938 86.3438H69.2812L65.0312 90.5V104C65.5104 104.083 66.0729 104.146 66.7188 104.188V90.8125L70.125 87.4375L70.75 88L67.5312 91.1875V104.219L68.5625 104.312C70.1667 104.458 71.7188 104.531 73.2188 104.531C75.3854 104.531 77.25 104.427 78.8125 104.219V89.8438L75 86.3438H89.4375L85.125 90.5V123.062L88.9062 126.438H74.5312L78.8125 122.781V109.531C77.0625 109.948 75.2604 110.156 73.4062 110.156C71.6562 110.156 69.8438 110.062 67.9688 109.875L67.5312 109.844V123.062L72.6875 129H56.5312L55.7188 128.156H70.9688L66.7188 123.5V109.125L67.625 109.188C70.375 109.396 72.3646 109.5 73.5938 109.5C75.5938 109.5 77.3333 109.229 78.8125 108.688V107.562C76.8542 107.854 74.5729 108 71.9688 108C70.5729 108 69.5521 107.969 68.9062 107.906L65.75 107.625C65.625 107.604 65.3854 107.583 65.0312 107.562V123.062L69.0312 126.438H54.5938L58.7812 122.781V109.125C57.0312 109.125 55.6354 109.812 54.5938 111.188L53.9375 110.875C55.1458 109.354 56.7604 108.51 58.7812 108.344V107.188C56.4479 107.188 54.6042 108.073 53.25 109.844L52.7812 109.531C54.0104 106.531 56.0104 104.76 58.7812 104.219V90.1562L54.5938 86.3438ZM90.75 88.0938L87.5625 91.1875V123.062L92.75 129H76.5312L75.75 128.156H90.9688L86.7812 123.438V90.875L90.25 87.4375L90.75 88.0938ZM94.0312 86.3438H108.844L104.656 90.5938V123.125L108.594 126.438H94.0312L98.375 122.844V90.25L94.0312 86.3438ZM110.25 88.125L107.062 91.2812V123.125L112.312 129H96.0625L95.2812 128.156H110.469L106.188 123.438V91L109.719 87.5L110.25 88.125ZM142.938 86.6875C141.854 88.1458 140.99 89.6667 140.344 91.25C139.073 94.375 138.229 96.2917 137.812 97L137.656 97.1875C137.573 96.9583 137.51 96.7812 137.469 96.6562C136.885 94.7812 136.406 93.4792 136.031 92.75C135.656 92.0208 135.094 91.3229 134.344 90.6562C132.448 88.9688 130.292 88.125 127.875 88.125C125.646 88.125 123.792 88.75 122.312 90C120.833 91.2292 120.094 92.7812 120.094 94.6562C120.094 98.1562 122.729 100.542 128 101.812L133.281 103.094C140.802 104.906 144.562 108.875 144.562 115C144.562 118.417 143.271 121.292 140.688 123.625C138.125 125.938 134.948 127.094 131.156 127.094C128.781 127.094 126.125 126.729 123.188 126L119.531 125.094C118.052 124.74 116.833 124.562 115.875 124.562C114.604 124.562 113.292 124.969 111.938 125.781L111.688 125.344C114.271 121.448 116.083 117.74 117.125 114.219L117.688 114.375C118.125 117.646 119.438 120.188 121.625 122C123.812 123.812 126.677 124.719 130.219 124.719C133.01 124.719 135.229 124.073 136.875 122.781C138.521 121.49 139.344 119.75 139.344 117.562C139.344 115.042 138.198 112.958 135.906 111.312C134.26 110.146 130.885 109.062 125.781 108.062C121.844 107.292 118.99 106.01 117.219 104.219C115.448 102.427 114.562 99.9375 114.562 96.75C114.562 93.4583 115.74 90.7917 118.094 88.75C120.469 86.6875 123.552 85.6562 127.344 85.6562C129.781 85.6562 132.625 86.0938 135.875 86.9688C137.396 87.3854 138.521 87.5938 139.25 87.5938C140.271 87.5938 141.385 87.2396 142.594 86.5312L142.938 86.6875ZM144.875 88L144.594 88.4688C143.74 89.9062 143.01 91.2812 142.406 92.5938C140.948 95.6562 140.125 97.3646 139.938 97.7188L139.781 97.9375L139.031 97.625L139.156 97.3438C139.76 95.9688 140.635 94.1771 141.781 91.9688L143.906 87.8438L144.062 87.5938L144.875 88ZM135.75 94.2188C133.458 91.7812 131 90.5625 128.375 90.5625C126.792 90.5625 125.479 91.0208 124.438 91.9375C123.396 92.8542 122.875 94.0208 122.875 95.4375C122.875 96.9792 123.927 98.5625 126.031 100.188L126.281 100.344L126.125 100.594C123.375 99.3646 122 97.5833 122 95.25C122 93.625 122.583 92.3021 123.75 91.2812C124.917 90.2604 126.438 89.75 128.312 89.75C130.104 89.75 131.667 90.1354 133 90.9062C134.354 91.6562 135.344 92.7188 135.969 94.0938L135.75 94.2188ZM142.938 106.625C145.771 108.771 147.188 111.708 147.188 115.438C147.188 119.417 145.646 122.792 142.562 125.562C139.479 128.312 135.729 129.688 131.312 129.688C129.062 129.688 127.031 129.458 125.219 129L120.219 127.781C119.052 127.49 117.802 127.344 116.469 127.344C115.281 127.344 114.188 127.583 113.188 128.062L112.812 127.156C113.896 126.656 115 126.406 116.125 126.406C117.375 126.406 118.802 126.594 120.406 126.969L125.219 128.125C127.135 128.583 129.156 128.812 131.281 128.812C135.448 128.812 138.99 127.49 141.906 124.844C144.844 122.177 146.312 118.958 146.312 115.188C146.312 112 145.188 109.208 142.938 106.812V106.625ZM120.688 115.625C121.458 119.375 123.521 122.031 126.875 123.594V123.844C123 122.719 120.656 120.031 119.844 115.781L120.688 115.625ZM116.781 105.5L117.844 106.094C118.531 107.323 120.542 108.344 123.875 109.156L128.906 110.406C132.323 111.26 134.594 112 135.719 112.625C136.865 113.229 137.677 114.156 138.156 115.406L137.938 115.531C137 114.448 135.979 113.656 134.875 113.156C133.792 112.656 131.698 112.042 128.594 111.312C124.094 110.271 121.073 109.375 119.531 108.625C117.99 107.854 117.073 106.812 116.781 105.5ZM149.344 86.3438H163.969L159.625 90.4688V109.344L161.344 107.375V90.7188L164.844 87.3125L165.312 88L162.094 91.125V106.406L171.781 94.8438C173.177 93.1771 173.875 91.6771 173.875 90.3438C173.875 89.5521 173.479 88.8021 172.688 88.0938C171.896 87.3646 170.938 86.8854 169.812 86.6562V86.3438H186.281V86.6562C182.677 87.5312 178.792 90.4688 174.625 95.4688L170.281 100.625L181.812 123.031L187.062 126.438H170.844L174.938 123.375L167.188 107.875L162.094 114.094V123.031L167.188 129H151.156L150.312 128.156H165.312L161.344 123.375V113.688L166.781 107L166.094 105.625L159.625 113.312V123.031L163.406 126.438H149.094L153.375 122.781V90.0625L149.344 86.3438ZM187.844 89.1875C184.76 89.3958 181.688 91.1979 178.625 94.5938L173.156 100.656L184.188 123.031L193.031 129H173.156L172.281 128.156H190.375L183.719 123.625L172.281 100.656L178.094 94.0938C181.135 90.6979 184.271 88.8438 187.5 88.5312L187.844 89.1875ZM236.094 75.3438L236.281 75.5938L235.969 75.9375C232.24 79.8125 229.167 83.75 226.75 87.75C225.812 89.2708 225.146 90.3542 224.75 91L213.125 109.594V122.281L217.656 126.438H202.438L206.938 122.281V109.594L199.438 98.0625L197.812 95.4688C196.333 93.1562 195.115 91.4688 194.156 90.4062C193.219 89.3438 191.823 88.0833 189.969 86.625L189.625 86.3438H205.406L201.531 90.375L211.938 106.062L212.938 104.469L203.656 90.375L206.938 87.25L207.594 87.75L204.75 90.375L213.406 103.719L220.406 92.6875C222.427 89.4792 223.438 87.0833 223.438 85.5C223.438 84.1667 222.552 82.6458 220.781 80.9375C226.844 79.4792 231.823 77.6771 235.719 75.5312L236.094 75.3438ZM237.5 77.2188V78.5L237.188 78.8125C235.438 80.4792 233.927 82.1458 232.656 83.8125C231.406 85.4792 229.542 88.2812 227.062 92.2188L215.75 110.031V122.281L221.312 129H201.75L201.375 128.156H219.656L214.906 122.281V109.812L226.438 91.625L228.25 88.75C231.479 83.6042 234.562 79.7604 237.5 77.2188Z" fill="#E6CCA1"/>
<line x1="10" y1="135.5" x2="103" y2="135.5" stroke="#E6CCA1"/>
<line x1="129" y1="153.5" x2="222" y2="153.5" stroke="#E6CCA1"/>
<line x1="10" y1="153.5" x2="103" y2="153.5" stroke="#E6CCA1"/>
<line x1="129" y1="135.5" x2="222" y2="135.5" stroke="#E6CCA1"/>
<path d="M21.1465 140.646C20.7129 140.814 20.3477 140.898 20.0508 140.898C19.8398 140.898 19.5703 140.838 19.2422 140.717C18.918 140.596 18.6836 140.535 18.5391 140.535C18.2812 140.535 18.0605 140.637 17.877 140.84C17.6934 141.039 17.6016 141.281 17.6016 141.566C17.6016 141.895 17.75 142.184 18.0469 142.434C18.1445 142.516 18.1934 142.578 18.1934 142.621C18.1934 142.688 18.1035 142.811 17.9238 142.99C17.748 143.17 17.5977 143.26 17.4727 143.26C17.3359 143.26 17.1992 143.145 17.0625 142.914C16.9258 142.684 16.8574 142.447 16.8574 142.205C16.8574 141.572 17.1152 140.986 17.6309 140.447C18.1465 139.908 18.7051 139.639 19.3066 139.639C19.5371 139.639 19.8223 139.705 20.1621 139.838C20.5059 139.967 20.7539 140.031 20.9062 140.031C21.1406 140.031 21.3477 139.936 21.5273 139.744C21.5898 139.682 21.6465 139.65 21.6973 139.65C21.748 139.65 21.832 139.67 21.9492 139.709C22.0703 139.748 22.1309 139.791 22.1309 139.838C22.1309 139.873 22.0215 140.031 21.8027 140.312C21.584 140.59 21.4141 140.891 21.293 141.215C21.1719 141.539 21.0586 142.021 20.9531 142.662L20.8301 143.383C20.5957 144.812 20.3184 145.818 19.998 146.4C19.6816 146.979 19.2832 147.412 18.8027 147.701C18.3262 147.99 17.8105 148.135 17.2559 148.135C16.7285 148.135 16.2617 148.01 15.8555 147.76C15.4531 147.51 15.252 147.23 15.252 146.922C15.252 146.77 15.3848 146.578 15.6504 146.348C15.916 146.113 16.1074 145.996 16.2246 145.996C16.4082 145.996 16.5 146.145 16.5 146.441C16.5117 147.273 16.7754 147.689 17.291 147.689C18.0918 147.689 18.6211 146.771 18.8789 144.936C18.9922 144.15 19.1582 143.467 19.377 142.885C19.5996 142.299 20.1895 141.553 21.1465 140.646ZM25.2598 146.705C24.791 147.201 24.3789 147.564 24.0234 147.795C23.668 148.021 23.293 148.135 22.8984 148.135C22.4961 148.135 22.1621 147.986 21.8965 147.689C21.6348 147.393 21.5039 147.016 21.5039 146.559C21.5039 146.492 21.5293 146.236 21.5801 145.791C21.6348 145.342 21.6621 145.074 21.6621 144.988C21.6621 144.617 21.5859 144.354 21.4336 144.197C21.3867 144.205 21.3145 144.209 21.2168 144.209C21.0332 144.209 20.9414 144.129 20.9414 143.969C20.9414 143.734 21.0625 143.617 21.3047 143.617L21.5625 143.635C21.8086 143.635 22.0176 143.52 22.1895 143.289C22.3613 143.059 22.5254 142.625 22.6816 141.988C23.0645 140.43 23.6406 139.65 24.4102 139.65C24.5898 139.65 24.7598 139.719 24.9199 139.855C25.084 139.992 25.166 140.135 25.166 140.283C25.166 140.373 25.0938 140.561 24.9492 140.846C24.8047 141.127 24.6914 141.268 24.6094 141.268C24.5664 141.268 24.502 141.195 24.416 141.051C24.3301 140.906 24.2031 140.834 24.0352 140.834C23.707 140.834 23.4512 141.191 23.2676 141.906C23.084 142.621 22.8984 143.107 22.7109 143.365C22.5234 143.623 22.3203 143.791 22.1016 143.869C22.4922 144.072 22.7754 144.309 22.9512 144.578C23.1309 144.848 23.2207 145.205 23.2207 145.65C23.2207 145.736 23.2109 145.877 23.1914 146.072C23.1758 146.268 23.168 146.412 23.168 146.506C23.168 146.943 23.3457 147.162 23.7012 147.162C24.1113 147.162 24.6309 146.785 25.2598 146.031V146.705ZM30.5273 146.705C30.3477 146.861 30.166 146.973 29.9824 147.039C29.7988 147.105 29.6562 147.139 29.5547 147.139C29.2695 147.139 28.9883 147.029 28.7109 146.811C28.0156 147.693 27.2793 148.135 26.502 148.135C26.0957 148.135 25.7773 147.996 25.5469 147.719C25.3203 147.438 25.207 147.047 25.207 146.547C25.207 145.996 25.3438 145.32 25.6172 144.52L26.0273 143.318L27.6211 143.02L26.9121 145.135C26.8379 145.365 26.7676 145.639 26.7012 145.955C26.6348 146.271 26.6016 146.498 26.6016 146.635C26.6016 146.846 26.6562 147.023 26.7656 147.168C26.8789 147.309 27.0156 147.379 27.1758 147.379C27.5508 147.379 27.9551 147.059 28.3887 146.418C28.1895 146.02 28.0898 145.619 28.0898 145.217C28.0898 144.658 28.2363 144.154 28.5293 143.705C28.8262 143.256 29.1504 143.031 29.502 143.031C29.7676 143.031 29.9004 143.236 29.9004 143.646C29.9004 144.439 29.5801 145.355 28.9395 146.395C29.1387 146.578 29.3477 146.67 29.5664 146.67C29.832 146.67 30.1523 146.457 30.5273 146.031V146.705ZM33.293 140.74C33.293 141.678 32.9473 142.146 32.2559 142.146C31.9199 142.146 31.6328 142.045 31.3945 141.842C31.6211 141.498 31.7969 141.111 31.9219 140.682C32.2305 140.873 32.4785 140.969 32.666 140.969C32.877 140.969 33.0859 140.893 33.293 140.74ZM33.4102 146.705C32.4961 147.666 31.8125 148.146 31.3594 148.146C31.1094 148.146 30.8984 148.02 30.7266 147.766C30.5547 147.508 30.4688 147.186 30.4688 146.799C30.4688 145.967 30.75 144.814 31.3125 143.342L32.8008 143.031H32.8711L32.2852 144.865C32.043 145.623 31.9219 146.164 31.9219 146.488C31.9219 146.617 31.9492 146.723 32.0039 146.805C32.0625 146.883 32.1348 146.922 32.2207 146.922C32.373 146.922 32.5254 146.867 32.6777 146.758C32.834 146.645 33.0781 146.402 33.4102 146.031V146.705ZM35.2148 143.271C35.4844 143.201 35.7559 143.145 36.0293 143.102C36.3027 143.055 36.4668 143.031 36.5215 143.031C36.5605 143.031 36.5801 143.047 36.5801 143.078C36.5801 143.137 36.5645 143.197 36.5332 143.26C36.4707 143.439 36.4395 143.611 36.4395 143.775C36.4395 143.979 36.5566 144.256 36.791 144.607C37.0254 144.959 37.1426 145.285 37.1426 145.586C37.1426 146.184 36.8555 146.76 36.2812 147.314C35.7109 147.869 35.1191 148.146 34.5059 148.146C34.2402 148.146 33.998 148.076 33.7793 147.936C33.5605 147.795 33.4512 147.645 33.4512 147.484C33.4512 147.391 33.5586 147.213 33.7734 146.951C33.9922 146.689 34.1484 146.559 34.2422 146.559C34.3672 146.559 34.4785 146.719 34.5762 147.039C34.6738 147.359 34.8418 147.52 35.0801 147.52C35.3184 147.52 35.541 147.41 35.748 147.191C35.959 146.969 36.0645 146.73 36.0645 146.477C36.0645 146.23 35.9316 145.902 35.666 145.492C35.4004 145.082 35.2246 144.738 35.1387 144.461C34.6855 145.191 34.1113 145.939 33.416 146.705H33.2812V146.178C34.2383 145.158 34.8828 144.189 35.2148 143.271ZM41.6602 146.705C41.168 147.193 40.7422 147.555 40.3828 147.789C40.0234 148.02 39.6816 148.135 39.3574 148.135C39.0215 148.135 38.748 147.994 38.5371 147.713C38.3301 147.428 38.2266 147.055 38.2266 146.594C38.2266 146.188 38.3242 145.65 38.5195 144.982L38.7773 144.098L38.3262 144.121L38.5137 143.201L39.0703 143.178L39.6211 141.35L41.1914 141.027L40.5938 143.066L41.4082 143.02L41.2148 143.922L40.3066 143.992L39.9141 145.305C39.7812 145.762 39.7148 146.125 39.7148 146.395C39.7148 146.578 39.7598 146.729 39.8496 146.846C39.9434 146.959 40.0625 147.016 40.207 147.016C40.4062 147.016 40.6035 146.953 40.7988 146.828C40.9941 146.699 41.2812 146.434 41.6602 146.031V146.705ZM53.6777 140.646C53.2441 140.814 52.8789 140.898 52.582 140.898C52.3711 140.898 52.1016 140.838 51.7734 140.717C51.4492 140.596 51.2148 140.535 51.0703 140.535C50.8125 140.535 50.5918 140.637 50.4082 140.84C50.2246 141.039 50.1328 141.281 50.1328 141.566C50.1328 141.895 50.2812 142.184 50.5781 142.434C50.6758 142.516 50.7246 142.578 50.7246 142.621C50.7246 142.688 50.6348 142.811 50.4551 142.99C50.2793 143.17 50.1289 143.26 50.0039 143.26C49.8672 143.26 49.7305 143.145 49.5938 142.914C49.457 142.684 49.3887 142.447 49.3887 142.205C49.3887 141.572 49.6465 140.986 50.1621 140.447C50.6777 139.908 51.2363 139.639 51.8379 139.639C52.0684 139.639 52.3535 139.705 52.6934 139.838C53.0371 139.967 53.2852 140.031 53.4375 140.031C53.6719 140.031 53.8789 139.936 54.0586 139.744C54.1211 139.682 54.1777 139.65 54.2285 139.65C54.2793 139.65 54.3633 139.67 54.4805 139.709C54.6016 139.748 54.6621 139.791 54.6621 139.838C54.6621 139.873 54.5527 140.031 54.334 140.312C54.1152 140.59 53.9453 140.891 53.8242 141.215C53.7031 141.539 53.5898 142.021 53.4844 142.662L53.3613 143.383C53.127 144.812 52.8496 145.818 52.5293 146.4C52.2129 146.979 51.8145 147.412 51.334 147.701C50.8574 147.99 50.3418 148.135 49.7871 148.135C49.2598 148.135 48.793 148.01 48.3867 147.76C47.9844 147.51 47.7832 147.23 47.7832 146.922C47.7832 146.77 47.916 146.578 48.1816 146.348C48.4473 146.113 48.6387 145.996 48.7559 145.996C48.9395 145.996 49.0312 146.145 49.0312 146.441C49.043 147.273 49.3066 147.689 49.8223 147.689C50.623 147.689 51.1523 146.771 51.4102 144.936C51.5234 144.15 51.6895 143.467 51.9082 142.885C52.1309 142.299 52.7207 141.553 53.6777 140.646ZM57.791 146.705C57.3223 147.201 56.9102 147.564 56.5547 147.795C56.1992 148.021 55.8242 148.135 55.4297 148.135C55.0273 148.135 54.6934 147.986 54.4277 147.689C54.166 147.393 54.0352 147.016 54.0352 146.559C54.0352 146.492 54.0605 146.236 54.1113 145.791C54.166 145.342 54.1934 145.074 54.1934 144.988C54.1934 144.617 54.1172 144.354 53.9648 144.197C53.918 144.205 53.8457 144.209 53.748 144.209C53.5645 144.209 53.4727 144.129 53.4727 143.969C53.4727 143.734 53.5938 143.617 53.8359 143.617L54.0938 143.635C54.3398 143.635 54.5488 143.52 54.7207 143.289C54.8926 143.059 55.0566 142.625 55.2129 141.988C55.5957 140.43 56.1719 139.65 56.9414 139.65C57.1211 139.65 57.291 139.719 57.4512 139.855C57.6152 139.992 57.6973 140.135 57.6973 140.283C57.6973 140.373 57.625 140.561 57.4805 140.846C57.3359 141.127 57.2227 141.268 57.1406 141.268C57.0977 141.268 57.0332 141.195 56.9473 141.051C56.8613 140.906 56.7344 140.834 56.5664 140.834C56.2383 140.834 55.9824 141.191 55.7988 141.906C55.6152 142.621 55.4297 143.107 55.2422 143.365C55.0547 143.623 54.8516 143.791 54.6328 143.869C55.0234 144.072 55.3066 144.309 55.4824 144.578C55.6621 144.848 55.752 145.205 55.752 145.65C55.752 145.736 55.7422 145.877 55.7227 146.072C55.707 146.268 55.6992 146.412 55.6992 146.506C55.6992 146.943 55.877 147.162 56.2324 147.162C56.6426 147.162 57.1621 146.785 57.791 146.031V146.705ZM62.0508 140.729C61.9766 141.682 61.5801 142.158 60.8613 142.158C60.5254 142.158 60.2285 142.045 59.9707 141.818C60.3105 141.385 60.5117 141.01 60.5742 140.693C60.8867 140.885 61.1465 140.98 61.3535 140.98C61.5879 140.98 61.8203 140.896 62.0508 140.729ZM62.1797 146.705C61.8125 147.076 61.3574 147.408 60.8145 147.701C60.6699 148.768 60.3965 149.586 59.9941 150.156C59.5957 150.727 59.1875 151.012 58.7695 151.012C58.5078 151.012 58.2852 150.902 58.1016 150.684C57.918 150.469 57.8262 150.203 57.8262 149.887C57.8262 149.121 58.3418 148.477 59.373 147.953L59.8066 144.426C58.9941 145.441 58.3262 146.201 57.8027 146.705H57.668V146.178C58.1875 145.682 58.8867 144.861 59.7656 143.717L60.1289 143.248C60.5391 143.201 60.998 143.125 61.5059 143.02C61.334 143.949 61.1309 145.322 60.8965 147.139C61.2559 146.959 61.6797 146.594 62.168 146.043L62.1797 146.705ZM59.3379 148.492C59.0098 148.645 58.75 148.85 58.5586 149.107C58.3711 149.369 58.2773 149.637 58.2773 149.91C58.2773 150.086 58.3184 150.234 58.4004 150.355C58.4824 150.48 58.5781 150.543 58.6875 150.543C58.957 150.543 59.1328 150.199 59.2148 149.512L59.3379 148.492ZM66.5625 146.705C66.0664 147.193 65.6211 147.555 65.2266 147.789C64.832 148.02 64.3965 148.135 63.9199 148.135C63.3887 148.135 62.959 147.965 62.6309 147.625C62.3066 147.285 62.1445 146.838 62.1445 146.283C62.1445 145.455 62.4316 144.707 63.0059 144.039C63.5801 143.367 64.2168 143.031 64.916 143.031C65.2793 143.031 65.5703 143.125 65.7891 143.312C66.0078 143.5 66.1172 143.746 66.1172 144.051C66.1172 144.859 65.2578 145.516 63.5391 146.02C63.6953 146.781 64.1035 147.162 64.7637 147.162C65.0215 147.162 65.2676 147.094 65.502 146.957C65.7363 146.816 66.0898 146.508 66.5625 146.031V146.705ZM63.4922 145.621C64.4922 145.34 64.9922 144.82 64.9922 144.062C64.9922 143.688 64.8555 143.5 64.582 143.5C64.3242 143.5 64.0781 143.697 63.8438 144.092C63.6094 144.482 63.4922 144.992 63.4922 145.621ZM70.4414 146.705C69.9102 147.193 69.4434 147.555 69.041 147.789C68.6426 148.02 68.2617 148.135 67.8984 148.135C67.4805 148.135 67.1426 147.973 66.8848 147.648C66.6309 147.324 66.5039 146.889 66.5039 146.342C66.5039 145.521 66.6816 144.537 67.0371 143.389C67.3926 142.24 67.8242 141.182 68.332 140.213L69.8203 139.662C69.8672 139.646 69.9023 139.639 69.9258 139.639C70.0391 139.639 70.1309 139.723 70.2012 139.891C70.2754 140.055 70.3125 140.277 70.3125 140.559C70.3125 141.355 70.1289 142.127 69.7617 142.873C69.3945 143.619 68.8203 144.416 68.0391 145.264C68.0078 145.67 67.9922 145.949 67.9922 146.102C67.9922 146.441 68.0547 146.711 68.1797 146.91C68.3047 147.109 68.4707 147.209 68.6777 147.209C68.8887 147.209 69.1133 147.133 69.3516 146.98C69.5898 146.828 69.9531 146.512 70.4414 146.031V146.705ZM68.1973 144.414C68.6934 143.863 69.0957 143.246 69.4043 142.562C69.7129 141.879 69.8672 141.291 69.8672 140.799C69.8672 140.654 69.8457 140.539 69.8027 140.453C69.7598 140.363 69.7051 140.318 69.6387 140.318C69.4941 140.318 69.2832 140.678 69.0059 141.396C68.7324 142.115 68.4629 143.121 68.1973 144.414ZM74.3203 146.705C73.7891 147.193 73.3223 147.555 72.9199 147.789C72.5215 148.02 72.1406 148.135 71.7773 148.135C71.3594 148.135 71.0215 147.973 70.7637 147.648C70.5098 147.324 70.3828 146.889 70.3828 146.342C70.3828 145.521 70.5605 144.537 70.916 143.389C71.2715 142.24 71.7031 141.182 72.2109 140.213L73.6992 139.662C73.7461 139.646 73.7812 139.639 73.8047 139.639C73.918 139.639 74.0098 139.723 74.0801 139.891C74.1543 140.055 74.1914 140.277 74.1914 140.559C74.1914 141.355 74.0078 142.127 73.6406 142.873C73.2734 143.619 72.6992 144.416 71.918 145.264C71.8867 145.67 71.8711 145.949 71.8711 146.102C71.8711 146.441 71.9336 146.711 72.0586 146.91C72.1836 147.109 72.3496 147.209 72.5566 147.209C72.7676 147.209 72.9922 147.133 73.2305 146.98C73.4688 146.828 73.832 146.512 74.3203 146.031V146.705ZM72.0762 144.414C72.5723 143.863 72.9746 143.246 73.2832 142.562C73.5918 141.879 73.7461 141.291 73.7461 140.799C73.7461 140.654 73.7246 140.539 73.6816 140.453C73.6387 140.363 73.584 140.318 73.5176 140.318C73.373 140.318 73.1621 140.678 72.8848 141.396C72.6113 142.115 72.3418 143.121 72.0762 144.414ZM80.0742 146.705C79.1719 147.658 78.3984 148.135 77.7539 148.135C77.4922 148.135 77.2812 148.043 77.1211 147.859C76.9609 147.676 76.8809 147.43 76.8809 147.121C76.8809 146.703 77.0527 146.064 77.3965 145.205C77.5801 144.744 77.6719 144.451 77.6719 144.326C77.6719 144.201 77.623 144.139 77.5254 144.139C77.4707 144.139 77.3984 144.166 77.3086 144.221C77.2266 144.275 77.1309 144.352 77.0215 144.449C76.9238 144.539 76.8145 144.648 76.6934 144.777C76.5879 144.887 76.4746 145.012 76.3535 145.152L76.0254 145.533C75.8809 145.709 75.791 145.895 75.7559 146.09C75.6973 146.422 75.6582 146.727 75.6387 147.004C75.627 147.211 75.6211 147.49 75.6211 147.842L74.3262 148.146C74.2832 147.619 74.2617 147.227 74.2617 146.969C74.2617 146.34 74.334 145.744 74.4785 145.182C74.627 144.619 74.8633 143.986 75.1875 143.283L76.6172 143.008C76.3164 143.816 76.1191 144.453 76.0254 144.918C76.666 144.203 77.1738 143.709 77.5488 143.436C77.9277 143.158 78.2637 143.02 78.5566 143.02C78.7559 143.02 78.9219 143.096 79.0547 143.248C79.1875 143.396 79.2539 143.584 79.2539 143.811C79.2539 144.186 79.0859 144.803 78.75 145.662C78.5195 146.252 78.4043 146.635 78.4043 146.811C78.4043 147.045 78.5 147.162 78.6914 147.162C78.9766 147.162 79.4375 146.785 80.0742 146.031V146.705ZM84.457 146.705C83.9609 147.193 83.5156 147.555 83.1211 147.789C82.7266 148.02 82.291 148.135 81.8145 148.135C81.2832 148.135 80.8535 147.965 80.5254 147.625C80.2012 147.285 80.0391 146.838 80.0391 146.283C80.0391 145.455 80.3262 144.707 80.9004 144.039C81.4746 143.367 82.1113 143.031 82.8105 143.031C83.1738 143.031 83.4648 143.125 83.6836 143.312C83.9023 143.5 84.0117 143.746 84.0117 144.051C84.0117 144.859 83.1523 145.516 81.4336 146.02C81.5898 146.781 81.998 147.162 82.6582 147.162C82.916 147.162 83.1621 147.094 83.3965 146.957C83.6309 146.816 83.9844 146.508 84.457 146.031V146.705ZM81.3867 145.621C82.3867 145.34 82.8867 144.82 82.8867 144.062C82.8867 143.688 82.75 143.5 82.4766 143.5C82.2188 143.5 81.9727 143.697 81.7383 144.092C81.5039 144.482 81.3867 144.992 81.3867 145.621ZM88.8398 146.705C87.8594 147.666 87.1035 148.146 86.5723 148.146C86.334 148.146 86.1328 148.047 85.9688 147.848C85.8047 147.645 85.7227 147.395 85.7227 147.098C85.7227 146.547 86.0176 145.809 86.6074 144.883C86.3184 145.031 86.002 145.135 85.6582 145.193C85.4043 145.662 85.0059 146.166 84.4629 146.705H84.3281V146.178C84.6328 145.861 84.9082 145.521 85.1543 145.158C84.8184 145.01 84.6504 144.789 84.6504 144.496C84.6504 144.195 84.752 143.875 84.9551 143.535C85.1621 143.191 85.4453 143.02 85.8047 143.02C86.1094 143.02 86.2617 143.176 86.2617 143.488C86.2617 143.734 86.1738 144.086 85.998 144.543C86.6465 144.473 87.2129 143.977 87.6973 143.055L88.2305 143.031L87.6855 144.531C87.459 145.164 87.3125 145.596 87.2461 145.826C87.1797 146.053 87.1465 146.254 87.1465 146.43C87.1465 146.594 87.1836 146.725 87.2578 146.822C87.3359 146.92 87.4395 146.969 87.5684 146.969C87.709 146.969 87.8438 146.922 87.9727 146.828C88.1016 146.73 88.3906 146.465 88.8398 146.031V146.705ZM102.463 146.705C102.197 147.014 101.689 147.361 100.939 147.748C100.783 148.787 100.438 149.59 99.9023 150.156C99.3672 150.727 98.7656 151.012 98.0977 151.012C97.7773 151.012 97.5254 150.938 97.3418 150.789C97.1621 150.641 97.0723 150.436 97.0723 150.174C97.0723 149.447 97.7773 148.742 99.1875 148.059C99.3359 147.531 99.4805 147.057 99.6211 146.635C99.375 146.99 99.0176 147.305 98.5488 147.578C98.0801 147.852 97.6445 147.988 97.2422 147.988C96.5859 147.988 96.0391 147.705 95.6016 147.139C95.168 146.568 94.9512 145.848 94.9512 144.977C94.9512 144.059 95.1973 143.189 95.6895 142.369C96.1816 141.545 96.8281 140.887 97.6289 140.395C98.4297 139.898 99.2051 139.65 99.9551 139.65C100.627 139.65 101.172 139.842 101.59 140.225C102.012 140.607 102.223 141.104 102.223 141.713C102.223 142.369 101.986 142.947 101.514 143.447C101.041 143.947 100.498 144.197 99.8848 144.197C99.5254 144.197 99.2266 144.109 98.9883 143.934C98.7539 143.758 98.6367 143.541 98.6367 143.283C98.6367 143.127 98.6816 142.988 98.7715 142.867C98.8652 142.746 98.9727 142.686 99.0938 142.686C99.2109 142.686 99.2695 142.754 99.2695 142.891C99.2695 143.012 99.3145 143.105 99.4043 143.172C99.4941 143.238 99.5977 143.271 99.7148 143.271C100.027 143.271 100.326 143.059 100.611 142.633C100.9 142.203 101.045 141.744 101.045 141.256C101.045 140.912 100.934 140.633 100.711 140.418C100.488 140.199 100.201 140.09 99.8496 140.09C99.3223 140.09 98.8105 140.324 98.3145 140.793C97.8223 141.262 97.4199 141.879 97.1074 142.645C96.7988 143.406 96.6445 144.131 96.6445 144.818C96.6445 145.451 96.7812 145.955 97.0547 146.33C97.3281 146.701 97.6914 146.887 98.1445 146.887C98.9102 146.887 99.6426 146.346 100.342 145.264L101.443 145.105C101.58 145.086 101.648 145.119 101.648 145.205C101.648 145.244 101.596 145.412 101.49 145.709C101.385 146.006 101.24 146.502 101.057 147.197C101.662 146.846 102.131 146.457 102.463 146.031V146.705ZM99.0527 148.65C98.0371 149.158 97.5293 149.658 97.5293 150.15C97.5293 150.412 97.6543 150.543 97.9043 150.543C98.3965 150.543 98.7793 149.912 99.0527 148.65ZM106.84 146.705C105.859 147.666 105.104 148.146 104.572 148.146C104.334 148.146 104.133 148.047 103.969 147.848C103.805 147.645 103.723 147.395 103.723 147.098C103.723 146.547 104.018 145.809 104.607 144.883C104.318 145.031 104.002 145.135 103.658 145.193C103.404 145.662 103.006 146.166 102.463 146.705H102.328V146.178C102.633 145.861 102.908 145.521 103.154 145.158C102.818 145.01 102.65 144.789 102.65 144.496C102.65 144.195 102.752 143.875 102.955 143.535C103.162 143.191 103.445 143.02 103.805 143.02C104.109 143.02 104.262 143.176 104.262 143.488C104.262 143.734 104.174 144.086 103.998 144.543C104.646 144.473 105.213 143.977 105.697 143.055L106.23 143.031L105.686 144.531C105.459 145.164 105.312 145.596 105.246 145.826C105.18 146.053 105.146 146.254 105.146 146.43C105.146 146.594 105.184 146.725 105.258 146.822C105.336 146.92 105.439 146.969 105.568 146.969C105.709 146.969 105.844 146.922 105.973 146.828C106.102 146.73 106.391 146.465 106.84 146.031V146.705ZM113.098 146.705C112.473 147.299 112.025 147.686 111.756 147.865C111.486 148.045 111.229 148.135 110.982 148.135C110.365 148.135 110.074 147.59 110.109 146.5C109.719 147.059 109.357 147.471 109.025 147.736C108.697 148.002 108.357 148.135 108.006 148.135C107.662 148.135 107.369 147.975 107.127 147.654C106.889 147.33 106.77 146.934 106.77 146.465C106.77 145.879 106.93 145.32 107.25 144.789C107.574 144.258 107.988 143.828 108.492 143.5C108.996 143.172 109.441 143.008 109.828 143.008C110.316 143.008 110.658 143.232 110.854 143.682L112.049 143.02H112.377L111.861 144.736C111.596 145.6 111.463 146.191 111.463 146.512C111.463 146.848 111.582 147.016 111.82 147.016C111.973 147.016 112.141 146.936 112.324 146.775C112.508 146.611 112.766 146.363 113.098 146.031V146.705ZM108.809 147.027C109.199 147.027 109.566 146.695 109.91 146.031C110.258 145.363 110.432 144.748 110.432 144.186C110.432 143.967 110.383 143.797 110.285 143.676C110.188 143.551 110.057 143.488 109.893 143.488C109.502 143.488 109.131 143.82 108.779 144.484C108.432 145.148 108.258 145.76 108.258 146.318C108.258 146.529 108.309 146.701 108.41 146.834C108.516 146.963 108.648 147.027 108.809 147.027ZM118.852 146.705C117.949 147.658 117.176 148.135 116.531 148.135C116.27 148.135 116.059 148.043 115.898 147.859C115.738 147.676 115.658 147.43 115.658 147.121C115.658 146.703 115.83 146.064 116.174 145.205C116.357 144.744 116.449 144.451 116.449 144.326C116.449 144.201 116.4 144.139 116.303 144.139C116.248 144.139 116.176 144.166 116.086 144.221C116.004 144.275 115.908 144.352 115.799 144.449C115.701 144.539 115.592 144.648 115.471 144.777C115.365 144.887 115.252 145.012 115.131 145.152L114.803 145.533C114.658 145.709 114.568 145.895 114.533 146.09C114.475 146.422 114.436 146.727 114.416 147.004C114.404 147.211 114.398 147.49 114.398 147.842L113.104 148.146C113.061 147.619 113.039 147.227 113.039 146.969C113.039 146.34 113.111 145.744 113.256 145.182C113.404 144.619 113.641 143.986 113.965 143.283L115.395 143.008C115.094 143.816 114.896 144.453 114.803 144.918C115.443 144.203 115.951 143.709 116.326 143.436C116.705 143.158 117.041 143.02 117.334 143.02C117.533 143.02 117.699 143.096 117.832 143.248C117.965 143.396 118.031 143.584 118.031 143.811C118.031 144.186 117.863 144.803 117.527 145.662C117.297 146.252 117.182 146.635 117.182 146.811C117.182 147.045 117.277 147.162 117.469 147.162C117.754 147.162 118.215 146.785 118.852 146.031V146.705ZM125.109 146.705C124.484 147.299 124.037 147.686 123.768 147.865C123.498 148.045 123.24 148.135 122.994 148.135C122.377 148.135 122.086 147.59 122.121 146.5C121.73 147.059 121.369 147.471 121.037 147.736C120.709 148.002 120.369 148.135 120.018 148.135C119.674 148.135 119.381 147.975 119.139 147.654C118.9 147.33 118.781 146.934 118.781 146.465C118.781 145.879 118.941 145.32 119.262 144.789C119.586 144.258 120 143.828 120.504 143.5C121.008 143.172 121.453 143.008 121.84 143.008C122.328 143.008 122.67 143.232 122.865 143.682L124.061 143.02H124.389L123.873 144.736C123.607 145.6 123.475 146.191 123.475 146.512C123.475 146.848 123.594 147.016 123.832 147.016C123.984 147.016 124.152 146.936 124.336 146.775C124.52 146.611 124.777 146.363 125.109 146.031V146.705ZM120.82 147.027C121.211 147.027 121.578 146.695 121.922 146.031C122.27 145.363 122.443 144.748 122.443 144.186C122.443 143.967 122.395 143.797 122.297 143.676C122.199 143.551 122.068 143.488 121.904 143.488C121.514 143.488 121.143 143.82 120.791 144.484C120.443 145.148 120.27 145.76 120.27 146.318C120.27 146.529 120.32 146.701 120.422 146.834C120.527 146.963 120.66 147.027 120.82 147.027ZM128.484 146.705C127.992 147.193 127.566 147.555 127.207 147.789C126.848 148.02 126.506 148.135 126.182 148.135C125.846 148.135 125.572 147.994 125.361 147.713C125.154 147.428 125.051 147.055 125.051 146.594C125.051 146.188 125.148 145.65 125.344 144.982L125.602 144.098L125.15 144.121L125.338 143.201L125.895 143.178L126.445 141.35L128.016 141.027L127.418 143.066L128.232 143.02L128.039 143.922L127.131 143.992L126.738 145.305C126.605 145.762 126.539 146.125 126.539 146.395C126.539 146.578 126.584 146.729 126.674 146.846C126.768 146.959 126.887 147.016 127.031 147.016C127.23 147.016 127.428 146.953 127.623 146.828C127.818 146.699 128.105 146.434 128.484 146.031V146.705ZM134.238 146.705C133.312 147.666 132.551 148.146 131.953 148.146C131.688 148.146 131.467 148.057 131.291 147.877C131.119 147.693 131.033 147.463 131.033 147.186C131.033 146.717 131.213 146.057 131.572 145.205C131.764 144.744 131.859 144.443 131.859 144.303C131.859 144.143 131.783 144.062 131.631 144.062C131.475 144.062 131.248 144.17 130.951 144.385C130.654 144.596 130.342 144.885 130.014 145.252C129.877 145.971 129.809 146.834 129.809 147.842L128.502 148.146C128.451 147.736 128.426 147.291 128.426 146.811C128.426 145.646 128.586 144.562 128.906 143.559C129.227 142.555 129.73 141.49 130.418 140.365C130.93 140.158 131.375 139.99 131.754 139.861C132.137 139.729 132.355 139.662 132.41 139.662C132.512 139.662 132.598 139.744 132.668 139.908C132.738 140.072 132.773 140.277 132.773 140.523C132.773 140.938 132.646 141.396 132.393 141.9C132.139 142.4 131.74 143.006 131.197 143.717C131.717 143.416 132.062 143.227 132.234 143.148C132.406 143.07 132.582 143.031 132.762 143.031C132.961 143.031 133.121 143.104 133.242 143.248C133.367 143.389 133.43 143.576 133.43 143.811C133.43 144.162 133.289 144.707 133.008 145.445C132.73 146.184 132.592 146.646 132.592 146.834C132.592 146.92 132.617 146.996 132.668 147.062C132.723 147.129 132.785 147.162 132.855 147.162C133.105 147.162 133.566 146.785 134.238 146.031V146.705ZM130.178 144.303C131.572 142.682 132.27 141.486 132.27 140.717C132.27 140.482 132.205 140.365 132.076 140.365C131.861 140.365 131.555 140.75 131.156 141.52C130.758 142.289 130.432 143.217 130.178 144.303ZM146.432 143.43C146.85 143.43 147.154 143.266 147.346 142.938C147.537 142.605 147.633 142.244 147.633 141.854C147.633 141.314 147.453 140.885 147.094 140.564C146.738 140.24 146.258 140.078 145.652 140.078C144.84 140.078 144.109 140.314 143.461 140.787C142.812 141.256 142.488 141.775 142.488 142.346C142.488 142.686 142.672 142.934 143.039 143.09C143.133 143.129 143.18 143.166 143.18 143.201V143.383C143.18 143.469 143.023 143.576 142.711 143.705C142.402 143.834 142.199 143.898 142.102 143.898C141.949 143.898 141.795 143.775 141.639 143.529C141.482 143.279 141.404 143.021 141.404 142.756C141.404 142.291 141.594 141.805 141.973 141.297C142.355 140.789 142.893 140.381 143.584 140.072C144.279 139.764 145.076 139.609 145.975 139.609C146.936 139.609 147.713 139.811 148.307 140.213C148.904 140.615 149.203 141.131 149.203 141.76C149.203 142.697 148.539 143.338 147.211 143.682C148.254 144.006 148.775 144.645 148.775 145.598C148.775 146.293 148.514 146.891 147.99 147.391C147.471 147.887 146.848 148.135 146.121 148.135C145.801 148.135 145.533 148.07 145.318 147.941C145.104 147.812 144.996 147.656 144.996 147.473C144.996 147.352 145.064 147.188 145.201 146.98C145.338 146.773 145.465 146.67 145.582 146.67C145.742 146.67 145.838 146.857 145.869 147.232C145.893 147.529 145.984 147.678 146.145 147.678C146.406 147.678 146.637 147.387 146.836 146.805C147.039 146.223 147.141 145.637 147.141 145.047C147.141 144.332 146.885 143.936 146.373 143.857L146.432 143.43ZM146.625 141.162C146.398 141.365 146.227 141.598 146.109 141.859C145.996 142.117 145.895 142.625 145.805 143.383C145.719 144.141 145.609 144.777 145.477 145.293C145.344 145.805 145.111 146.283 144.779 146.729C144.451 147.17 144.033 147.518 143.525 147.771C143.021 148.021 142.479 148.146 141.896 148.146C141.377 148.146 140.979 148.037 140.701 147.818C140.428 147.6 140.291 147.289 140.291 146.887C140.291 146.742 140.303 146.621 140.326 146.523C140.51 146.355 140.729 146.209 140.982 146.084C141.236 145.955 141.406 145.891 141.492 145.891C141.633 145.891 141.703 145.998 141.703 146.213C141.703 146.248 141.688 146.371 141.656 146.582C141.625 146.789 141.609 146.914 141.609 146.957C141.609 147.438 141.816 147.678 142.23 147.678C142.648 147.678 143.012 147.406 143.32 146.863C143.629 146.316 143.85 145.502 143.982 144.42C144.119 143.338 144.307 142.592 144.545 142.182C144.787 141.768 145.092 141.451 145.459 141.232C145.826 141.01 146.111 140.898 146.314 140.898C146.416 140.898 146.52 140.986 146.625 141.162ZM153.738 146.705C153.242 147.193 152.797 147.555 152.402 147.789C152.008 148.02 151.572 148.135 151.096 148.135C150.564 148.135 150.135 147.965 149.807 147.625C149.482 147.285 149.32 146.838 149.32 146.283C149.32 145.455 149.607 144.707 150.182 144.039C150.756 143.367 151.393 143.031 152.092 143.031C152.455 143.031 152.746 143.125 152.965 143.312C153.184 143.5 153.293 143.746 153.293 144.051C153.293 144.859 152.434 145.516 150.715 146.02C150.871 146.781 151.279 147.162 151.939 147.162C152.197 147.162 152.443 147.094 152.678 146.957C152.912 146.816 153.266 146.508 153.738 146.031V146.705ZM150.668 145.621C151.668 145.34 152.168 144.82 152.168 144.062C152.168 143.688 152.031 143.5 151.758 143.5C151.5 143.5 151.254 143.697 151.02 144.092C150.785 144.482 150.668 144.992 150.668 145.621ZM158.121 146.705C157.141 147.666 156.385 148.146 155.854 148.146C155.615 148.146 155.414 148.047 155.25 147.848C155.086 147.645 155.004 147.395 155.004 147.098C155.004 146.547 155.299 145.809 155.889 144.883C155.6 145.031 155.283 145.135 154.939 145.193C154.686 145.662 154.287 146.166 153.744 146.705H153.609V146.178C153.914 145.861 154.189 145.521 154.436 145.158C154.1 145.01 153.932 144.789 153.932 144.496C153.932 144.195 154.033 143.875 154.236 143.535C154.443 143.191 154.727 143.02 155.086 143.02C155.391 143.02 155.543 143.176 155.543 143.488C155.543 143.734 155.455 144.086 155.279 144.543C155.928 144.473 156.494 143.977 156.979 143.055L157.512 143.031L156.967 144.531C156.74 145.164 156.594 145.596 156.527 145.826C156.461 146.053 156.428 146.254 156.428 146.43C156.428 146.594 156.465 146.725 156.539 146.822C156.617 146.92 156.721 146.969 156.85 146.969C156.99 146.969 157.125 146.922 157.254 146.828C157.383 146.73 157.672 146.465 158.121 146.031V146.705ZM163.875 146.705C163.379 147.225 162.785 147.607 162.094 147.854C161.77 148.865 161.357 149.645 160.857 150.191C160.361 150.738 159.834 151.012 159.275 151.012C158.971 151.012 158.725 150.916 158.537 150.725C158.35 150.533 158.256 150.281 158.256 149.969C158.256 149.551 158.441 149.176 158.812 148.844C159.188 148.512 159.822 148.191 160.717 147.883L160.969 146.729C160.594 147.15 160.27 147.461 159.996 147.66C159.723 147.855 159.447 147.953 159.17 147.953C158.846 147.953 158.58 147.801 158.373 147.496C158.166 147.191 158.062 146.795 158.062 146.307C158.062 145.51 158.365 144.764 158.971 144.068C159.58 143.369 160.227 143.02 160.91 143.02C161.289 143.02 161.625 143.18 161.918 143.5C162.094 143.438 162.322 143.344 162.604 143.219L163.02 143.031H163.154C163.002 143.492 162.885 143.941 162.803 144.379L162.252 147.314C162.779 147.115 163.32 146.688 163.875 146.031V146.705ZM160.102 146.898C160.379 146.898 160.625 146.734 160.84 146.406C161.055 146.078 161.221 145.662 161.338 145.158C161.459 144.654 161.52 144.305 161.52 144.109C161.52 143.926 161.473 143.775 161.379 143.658C161.289 143.537 161.176 143.477 161.039 143.477C160.625 143.477 160.264 143.756 159.955 144.314C159.646 144.873 159.492 145.441 159.492 146.02C159.492 146.289 159.547 146.504 159.656 146.664C159.77 146.82 159.918 146.898 160.102 146.898ZM160.594 148.398C159.332 148.852 158.701 149.375 158.701 149.969C158.701 150.145 158.754 150.287 158.859 150.396C158.965 150.51 159.1 150.566 159.264 150.566C159.545 150.566 159.789 150.389 159.996 150.033C160.203 149.678 160.402 149.133 160.594 148.398ZM176.068 143.43C176.486 143.43 176.791 143.266 176.982 142.938C177.174 142.605 177.27 142.244 177.27 141.854C177.27 141.314 177.09 140.885 176.73 140.564C176.375 140.24 175.895 140.078 175.289 140.078C174.477 140.078 173.746 140.314 173.098 140.787C172.449 141.256 172.125 141.775 172.125 142.346C172.125 142.686 172.309 142.934 172.676 143.09C172.77 143.129 172.816 143.166 172.816 143.201V143.383C172.816 143.469 172.66 143.576 172.348 143.705C172.039 143.834 171.836 143.898 171.738 143.898C171.586 143.898 171.432 143.775 171.275 143.529C171.119 143.279 171.041 143.021 171.041 142.756C171.041 142.291 171.23 141.805 171.609 141.297C171.992 140.789 172.529 140.381 173.221 140.072C173.916 139.764 174.713 139.609 175.611 139.609C176.572 139.609 177.35 139.811 177.943 140.213C178.541 140.615 178.84 141.131 178.84 141.76C178.84 142.697 178.176 143.338 176.848 143.682C177.891 144.006 178.412 144.645 178.412 145.598C178.412 146.293 178.15 146.891 177.627 147.391C177.107 147.887 176.484 148.135 175.758 148.135C175.438 148.135 175.17 148.07 174.955 147.941C174.74 147.812 174.633 147.656 174.633 147.473C174.633 147.352 174.701 147.188 174.838 146.98C174.975 146.773 175.102 146.67 175.219 146.67C175.379 146.67 175.475 146.857 175.506 147.232C175.529 147.529 175.621 147.678 175.781 147.678C176.043 147.678 176.273 147.387 176.473 146.805C176.676 146.223 176.777 145.637 176.777 145.047C176.777 144.332 176.521 143.936 176.01 143.857L176.068 143.43ZM176.262 141.162C176.035 141.365 175.863 141.598 175.746 141.859C175.633 142.117 175.531 142.625 175.441 143.383C175.355 144.141 175.246 144.777 175.113 145.293C174.98 145.805 174.748 146.283 174.416 146.729C174.088 147.17 173.67 147.518 173.162 147.771C172.658 148.021 172.115 148.146 171.533 148.146C171.014 148.146 170.615 148.037 170.338 147.818C170.064 147.6 169.928 147.289 169.928 146.887C169.928 146.742 169.939 146.621 169.963 146.523C170.146 146.355 170.365 146.209 170.619 146.084C170.873 145.955 171.043 145.891 171.129 145.891C171.27 145.891 171.34 145.998 171.34 146.213C171.34 146.248 171.324 146.371 171.293 146.582C171.262 146.789 171.246 146.914 171.246 146.957C171.246 147.438 171.453 147.678 171.867 147.678C172.285 147.678 172.648 147.406 172.957 146.863C173.266 146.316 173.486 145.502 173.619 144.42C173.756 143.338 173.943 142.592 174.182 142.182C174.424 141.768 174.729 141.451 175.096 141.232C175.463 141.01 175.748 140.898 175.951 140.898C176.053 140.898 176.156 140.986 176.262 141.162ZM183.375 146.705C182.879 147.193 182.434 147.555 182.039 147.789C181.645 148.02 181.209 148.135 180.732 148.135C180.201 148.135 179.771 147.965 179.443 147.625C179.119 147.285 178.957 146.838 178.957 146.283C178.957 145.455 179.244 144.707 179.818 144.039C180.393 143.367 181.029 143.031 181.729 143.031C182.092 143.031 182.383 143.125 182.602 143.312C182.82 143.5 182.93 143.746 182.93 144.051C182.93 144.859 182.07 145.516 180.352 146.02C180.508 146.781 180.916 147.162 181.576 147.162C181.834 147.162 182.08 147.094 182.314 146.957C182.549 146.816 182.902 146.508 183.375 146.031V146.705ZM180.305 145.621C181.305 145.34 181.805 144.82 181.805 144.062C181.805 143.688 181.668 143.5 181.395 143.5C181.137 143.5 180.891 143.697 180.656 144.092C180.422 144.482 180.305 144.992 180.305 145.621ZM187.758 146.705C186.777 147.666 186.021 148.146 185.49 148.146C185.252 148.146 185.051 148.047 184.887 147.848C184.723 147.645 184.641 147.395 184.641 147.098C184.641 146.547 184.936 145.809 185.525 144.883C185.236 145.031 184.92 145.135 184.576 145.193C184.322 145.662 183.924 146.166 183.381 146.705H183.246V146.178C183.551 145.861 183.826 145.521 184.072 145.158C183.736 145.01 183.568 144.789 183.568 144.496C183.568 144.195 183.67 143.875 183.873 143.535C184.08 143.191 184.363 143.02 184.723 143.02C185.027 143.02 185.18 143.176 185.18 143.488C185.18 143.734 185.092 144.086 184.916 144.543C185.564 144.473 186.131 143.977 186.615 143.055L187.148 143.031L186.604 144.531C186.377 145.164 186.23 145.596 186.164 145.826C186.098 146.053 186.064 146.254 186.064 146.43C186.064 146.594 186.102 146.725 186.176 146.822C186.254 146.92 186.357 146.969 186.486 146.969C186.627 146.969 186.762 146.922 186.891 146.828C187.02 146.73 187.309 146.465 187.758 146.031V146.705ZM193.512 146.705C192.609 147.658 191.836 148.135 191.191 148.135C190.93 148.135 190.719 148.043 190.559 147.859C190.398 147.676 190.318 147.43 190.318 147.121C190.318 146.703 190.49 146.064 190.834 145.205C191.018 144.744 191.109 144.451 191.109 144.326C191.109 144.201 191.061 144.139 190.963 144.139C190.908 144.139 190.836 144.166 190.746 144.221C190.664 144.275 190.568 144.352 190.459 144.449C190.361 144.539 190.252 144.648 190.131 144.777C190.025 144.887 189.912 145.012 189.791 145.152L189.463 145.533C189.318 145.709 189.229 145.895 189.193 146.09C189.135 146.422 189.096 146.727 189.076 147.004C189.064 147.211 189.059 147.49 189.059 147.842L187.764 148.146C187.721 147.619 187.699 147.227 187.699 146.969C187.699 146.34 187.771 145.744 187.916 145.182C188.064 144.619 188.301 143.986 188.625 143.283L190.055 143.008C189.754 143.816 189.557 144.453 189.463 144.918C190.104 144.203 190.611 143.709 190.986 143.436C191.365 143.158 191.701 143.02 191.994 143.02C192.193 143.02 192.359 143.096 192.492 143.248C192.625 143.396 192.691 143.584 192.691 143.811C192.691 144.186 192.523 144.803 192.188 145.662C191.957 146.252 191.842 146.635 191.842 146.811C191.842 147.045 191.938 147.162 192.129 147.162C192.414 147.162 192.875 146.785 193.512 146.031V146.705ZM196.887 146.705C196.395 147.193 195.969 147.555 195.609 147.789C195.25 148.02 194.908 148.135 194.584 148.135C194.248 148.135 193.975 147.994 193.764 147.713C193.557 147.428 193.453 147.055 193.453 146.594C193.453 146.188 193.551 145.65 193.746 144.982L194.004 144.098L193.553 144.121L193.74 143.201L194.297 143.178L194.848 141.35L196.418 141.027L195.82 143.066L196.635 143.02L196.441 143.922L195.533 143.992L195.141 145.305C195.008 145.762 194.941 146.125 194.941 146.395C194.941 146.578 194.986 146.729 195.076 146.846C195.17 146.959 195.289 147.016 195.434 147.016C195.633 147.016 195.83 146.953 196.025 146.828C196.221 146.699 196.508 146.434 196.887 146.031V146.705ZM198.691 143.271C198.961 143.201 199.232 143.145 199.506 143.102C199.779 143.055 199.943 143.031 199.998 143.031C200.037 143.031 200.057 143.047 200.057 143.078C200.057 143.137 200.041 143.197 200.01 143.26C199.947 143.439 199.916 143.611 199.916 143.775C199.916 143.979 200.033 144.256 200.268 144.607C200.502 144.959 200.619 145.285 200.619 145.586C200.619 146.184 200.332 146.76 199.758 147.314C199.188 147.869 198.596 148.146 197.982 148.146C197.717 148.146 197.475 148.076 197.256 147.936C197.037 147.795 196.928 147.645 196.928 147.484C196.928 147.391 197.035 147.213 197.25 146.951C197.469 146.689 197.625 146.559 197.719 146.559C197.844 146.559 197.955 146.719 198.053 147.039C198.15 147.359 198.318 147.52 198.557 147.52C198.795 147.52 199.018 147.41 199.225 147.191C199.436 146.969 199.541 146.73 199.541 146.477C199.541 146.23 199.408 145.902 199.143 145.492C198.877 145.082 198.701 144.738 198.615 144.461C198.162 145.191 197.588 145.939 196.893 146.705H196.758V146.178C197.715 145.158 198.359 144.189 198.691 143.271ZM203.566 143.271C203.836 143.201 204.107 143.145 204.381 143.102C204.654 143.055 204.818 143.031 204.873 143.031C204.912 143.031 204.932 143.047 204.932 143.078C204.932 143.137 204.916 143.197 204.885 143.26C204.822 143.439 204.791 143.611 204.791 143.775C204.791 143.979 204.908 144.256 205.143 144.607C205.377 144.959 205.494 145.285 205.494 145.586C205.494 146.184 205.207 146.76 204.633 147.314C204.062 147.869 203.471 148.146 202.857 148.146C202.592 148.146 202.35 148.076 202.131 147.936C201.912 147.795 201.803 147.645 201.803 147.484C201.803 147.391 201.91 147.213 202.125 146.951C202.344 146.689 202.5 146.559 202.594 146.559C202.719 146.559 202.83 146.719 202.928 147.039C203.025 147.359 203.193 147.52 203.432 147.52C203.67 147.52 203.893 147.41 204.1 147.191C204.311 146.969 204.416 146.73 204.416 146.477C204.416 146.23 204.283 145.902 204.018 145.492C203.752 145.082 203.576 144.738 203.49 144.461C203.037 145.191 202.463 145.939 201.768 146.705H201.633V146.178C202.59 145.158 203.234 144.189 203.566 143.271ZM211.898 146.705C211.699 146.881 211.506 147.006 211.318 147.08C211.131 147.15 210.982 147.186 210.873 147.186C210.592 147.186 210.312 147.076 210.035 146.857C209.473 147.709 208.828 148.135 208.102 148.135C207.648 148.135 207.281 147.965 207 147.625C206.719 147.285 206.578 146.834 206.578 146.271C206.578 145.381 206.895 144.617 207.527 143.98C208.16 143.34 208.916 143.02 209.795 143.02C210.127 143.02 210.369 143.057 210.521 143.131C210.678 143.201 210.773 143.285 210.809 143.383C210.844 143.48 210.861 143.604 210.861 143.752C210.861 144.482 210.662 145.379 210.264 146.441C210.463 146.625 210.672 146.717 210.891 146.717C211.152 146.717 211.488 146.488 211.898 146.031V146.705ZM209.965 143.43C209.906 143.406 209.822 143.395 209.713 143.395C209.205 143.395 208.807 143.66 208.518 144.191C208.232 144.723 208.09 145.344 208.09 146.055C208.09 146.449 208.152 146.756 208.277 146.975C208.402 147.193 208.576 147.303 208.799 147.303C209.076 147.303 209.377 147.047 209.701 146.535C209.334 146.074 209.15 145.578 209.15 145.047C209.15 144.422 209.422 143.883 209.965 143.43ZM217.652 146.705C216.75 147.658 215.977 148.135 215.332 148.135C215.07 148.135 214.859 148.043 214.699 147.859C214.539 147.676 214.459 147.43 214.459 147.121C214.459 146.703 214.631 146.064 214.975 145.205C215.158 144.744 215.25 144.451 215.25 144.326C215.25 144.201 215.201 144.139 215.104 144.139C215.049 144.139 214.977 144.166 214.887 144.221C214.805 144.275 214.709 144.352 214.6 144.449C214.502 144.539 214.393 144.648 214.271 144.777C214.166 144.887 214.053 145.012 213.932 145.152L213.604 145.533C213.459 145.709 213.369 145.895 213.334 146.09C213.275 146.422 213.236 146.727 213.217 147.004C213.205 147.211 213.199 147.49 213.199 147.842L211.904 148.146C211.861 147.619 211.84 147.227 211.84 146.969C211.84 146.34 211.912 145.744 212.057 145.182C212.205 144.619 212.441 143.986 212.766 143.283L214.195 143.008C213.895 143.816 213.697 144.453 213.604 144.918C214.244 144.203 214.752 143.709 215.127 143.436C215.506 143.158 215.842 143.02 216.135 143.02C216.334 143.02 216.5 143.096 216.633 143.248C216.766 143.396 216.832 143.584 216.832 143.811C216.832 144.186 216.664 144.803 216.328 145.662C216.098 146.252 215.982 146.635 215.982 146.811C215.982 147.045 216.078 147.162 216.27 147.162C216.555 147.162 217.016 146.785 217.652 146.031V146.705Z" fill="#E6CCA1"/>
<circle cx="45" cy="145" r="1" fill="#E6CCA1"/>
<circle cx="167" cy="145" r="1" fill="#E6CCA1"/>
<circle cx="137" cy="145" r="1" fill="#E6CCA1"/>
<circle cx="92" cy="145" r="1" fill="#E6CCA1"/>
</svg>
